<svg width="40" height="40" viewBox="0 0 40 40" fill="none" xmlns="http://www.w3.org/2000/svg">
<path d="M35 1.25C37.0711 1.25 38.75 2.92893 38.75 5V35C38.75 37.0711 37.0711 38.75 35 38.75H5C2.92893 38.75 1.25 37.0711 1.25 35V5C1.25 2.92893 2.92893 1.25 5 1.25H35Z" fill="#951A74"/>
<path d="M35 1.25C37.0711 1.25 38.75 2.92893 38.75 5V35C38.75 37.0711 37.0711 38.75 35 38.75H5C2.92893 38.75 1.25 37.0711 1.25 35V5C1.25 2.92893 2.92893 1.25 5 1.25H35Z" stroke="#16161D" stroke-width="1.5"/>
<path d="M25.5542 26.0988L23.4303 26.0805L22.3241 22.6688L17.6263 22.6283L16.5005 26.0207L14.4306 26.0028L18.8171 13.4762L21.373 13.4982L25.5542 26.0988ZM21.8344 20.9185L20.0797 15.3592L19.9897 15.3584L18.1265 20.8865L21.8344 20.9185Z" fill="#FEFBF4"/>
<path d="M11 27.2717V8.77051H29V27.2717" stroke="#FEFBF4" stroke-width="1.5"/>
</svg>
