<svg width="30" height="30" viewBox="0 0 30 30" fill="none" xmlns="http://www.w3.org/2000/svg">
<g filter="url(#filter0_d_1116_444)">
<path d="M3 3C3 1.89543 3.89543 1 5 1H25C26.1046 1 27 1.89543 27 3V23C27 24.1046 26.1046 25 25 25H5C3.89543 25 3 24.1046 3 23V3Z" fill="#16161D" shape-rendering="crispEdges"/>
<path d="M25 0.5C26.3807 0.5 27.5 1.61929 27.5 3V23C27.5 24.3807 26.3807 25.5 25 25.5H5C3.61929 25.5 2.5 24.3807 2.5 23V3C2.5 1.61929 3.61929 0.5 5 0.5H25Z" stroke="#16161D" shape-rendering="crispEdges"/>
<path d="M12.0474 18.0085L12.1158 9.63275L15.8236 9.66474C17.2036 9.67665 18.0486 10.536 18.0379 11.8439C18.0276 13.1039 17.2559 13.5532 16.5715 13.6073L16.5709 13.6793C17.2547 13.7092 18.3183 14.2464 18.3068 15.6504C18.2958 17.0063 17.3632 18.0543 16.1272 18.0437L12.0474 18.0085ZM13.4336 14.3123L13.4128 16.8562L15.7407 16.8763C16.4367 16.8823 16.8718 16.502 16.8774 15.8181L16.8808 15.4101C16.8863 14.7261 16.4575 14.3384 15.7615 14.3324L13.4336 14.3123ZM13.4622 10.8084L13.4428 13.1843L15.5427 13.2024C16.2027 13.2081 16.6016 12.8516 16.6068 12.2156L16.61 11.8316C16.6152 11.1956 16.2221 10.8322 15.5621 10.8265L13.4622 10.8084Z" fill="#FEFBF4"/>
<path d="M9 17.8478V5.51367H21V17.8478" stroke="#FEFBF4"/>
</g>
<defs>
<filter id="filter0_d_1116_444" x="0" y="0" width="30" height="30" filterUnits="userSpaceOnUse" color-interpolation-filters="sRGB">
<feFlood flood-opacity="0" result="BackgroundImageFix"/>
<feColorMatrix in="SourceAlpha" type="matrix" values="0 0 0 0 0 0 0 0 0 0 0 0 0 0 0 0 0 0 127 0" result="hardAlpha"/>
<feOffset dy="2"/>
<feGaussianBlur stdDeviation="1"/>
<feComposite in2="hardAlpha" operator="out"/>
<feColorMatrix type="matrix" values="0 0 0 0 0 0 0 0 0 0 0 0 0 0 0 0 0 0 0.1 0"/>
<feBlend mode="normal" in2="BackgroundImageFix" result="effect1_dropShadow_1116_444"/>
<feBlend mode="normal" in="SourceGraphic" in2="effect1_dropShadow_1116_444" result="shape"/>
</filter>
</defs>
</svg>
