<svg width="30" height="30" viewBox="0 0 30 30" fill="none" xmlns="http://www.w3.org/2000/svg">
<g filter="url(#filter0_d_748_664)">
<path d="M3 3C3 1.89543 3.89543 1 5 1H25C26.1046 1 27 1.89543 27 3V23C27 24.1046 26.1046 25 25 25H5C3.89543 25 3 24.1046 3 23V3Z" fill="#67378D" shape-rendering="crispEdges"/>
<path d="M25 0.5H5C3.61929 0.5 2.5 1.61929 2.5 3V23C2.5 24.3807 3.61929 25.5 5 25.5H25C26.3807 25.5 27.5 24.3807 27.5 23V3C27.5 1.61929 26.3807 0.5 25 0.5Z" stroke="#16161D" shape-rendering="crispEdges"/>
<path d="M12.1158 9.63275L15.8236 9.66474C16.5196 9.67075 17.062 9.87143 17.4508 10.2668C17.8476 10.6622 18.0433 11.1879 18.0379 11.8439C18.0354 12.1559 17.9892 12.4235 17.8994 12.6468C17.8096 12.862 17.6961 13.041 17.559 13.1838C17.4219 13.3187 17.265 13.4213 17.0884 13.4918C16.9119 13.5543 16.7396 13.5928 16.5715 13.6073L16.5709 13.6793C16.7388 13.6888 16.9225 13.7304 17.1219 13.8041C17.3293 13.8779 17.5203 13.9955 17.695 14.1571C17.8698 14.3106 18.0161 14.5118 18.1341 14.7609C18.2521 15.0019 18.3097 15.2984 18.3068 15.6504C18.3041 15.9864 18.2455 16.3019 18.1311 16.5969C18.0247 16.892 17.8746 17.1467 17.6809 17.3611C17.4871 17.5754 17.2577 17.7454 16.9927 17.8711C16.7277 17.9889 16.4392 18.0464 16.1272 18.0437L12.0474 18.0085L12.1158 9.63275ZM13.4128 16.8562L15.7407 16.8763C16.0927 16.8793 16.3695 16.7897 16.571 16.6074C16.7725 16.4252 16.8746 16.1621 16.8774 15.8181L16.8808 15.4101C16.8836 15.0661 16.7857 14.8012 16.5872 14.6155C16.3887 14.4298 16.1135 14.3354 15.7615 14.3324L13.4336 14.3123L13.4128 16.8562ZM13.4428 13.1843L15.5427 13.2024C15.8787 13.2053 16.1394 13.1236 16.3248 12.9572C16.5102 12.7828 16.6042 12.5356 16.6068 12.2156L16.61 11.8316C16.6126 11.5116 16.5226 11.2668 16.34 11.0972C16.1574 10.9197 15.8981 10.8294 15.5621 10.8265L13.4622 10.8084L13.4428 13.1843Z" fill="#FEFBF4"/>
<path d="M9 17.8478V5.51367H21V17.8478" stroke="#FEFBF4"/>
</g>
<defs>
<filter id="filter0_d_748_664" x="0" y="0" width="30" height="30" filterUnits="userSpaceOnUse" color-interpolation-filters="sRGB">
<feFlood flood-opacity="0" result="BackgroundImageFix"/>
<feColorMatrix in="SourceAlpha" type="matrix" values="0 0 0 0 0 0 0 0 0 0 0 0 0 0 0 0 0 0 127 0" result="hardAlpha"/>
<feOffset dy="2"/>
<feGaussianBlur stdDeviation="1"/>
<feComposite in2="hardAlpha" operator="out"/>
<feColorMatrix type="matrix" values="0 0 0 0 0 0 0 0 0 0 0 0 0 0 0 0 0 0 0.1 0"/>
<feBlend mode="normal" in2="BackgroundImageFix" result="effect1_dropShadow_748_664"/>
<feBlend mode="normal" in="SourceGraphic" in2="effect1_dropShadow_748_664" result="shape"/>
</filter>
</defs>
</svg>
