<svg width="40" height="40" viewBox="0 0 40 40" fill="none" xmlns="http://www.w3.org/2000/svg">
<path d="M35 1.25C37.0711 1.25 38.75 2.92893 38.75 5V35C38.75 37.0711 37.0711 38.75 35 38.75H5C2.92893 38.75 1.25 37.0711 1.25 35V5C1.25 2.92893 2.92893 1.25 5 1.25H35Z" fill="#951A74"/>
<path d="M35 1.25C37.0711 1.25 38.75 2.92893 38.75 5V35C38.75 37.0711 37.0711 38.75 35 38.75H5C2.92893 38.75 1.25 37.0711 1.25 35V5C1.25 2.92893 2.92893 1.25 5 1.25H35Z" stroke="#16161D" stroke-width="1.5"/>
<path d="M15.5826 26.0128L15.6852 13.4492L21.247 13.4972C23.3169 13.515 24.5844 14.804 24.5684 16.7659C24.553 18.6559 23.3954 19.3299 22.3687 19.4111L22.3678 19.5191C23.3935 19.5639 24.989 20.3697 24.9718 22.4756C24.9552 24.5096 23.5563 26.0816 21.7024 26.0656L15.5826 26.0128ZM17.6619 20.4685L17.6308 24.2844L21.1226 24.3145C22.1666 24.3235 22.8193 23.7531 22.8277 22.7271L22.8327 22.1152C22.841 21.0892 22.1978 20.5076 21.1538 20.4986L17.6619 20.4685ZM17.7049 15.2127L17.6757 18.7765L20.8256 18.8037C21.8156 18.8123 22.414 18.2774 22.4218 17.3234L22.4265 16.7475C22.4343 15.7935 21.8447 15.2484 20.8547 15.2398L17.7049 15.2127Z" fill="#FEFBF4"/>
<path d="M11 27.2717V8.77051H29V27.2717" stroke="#FEFBF4" stroke-width="1.5"/>
</svg>
