<svg width="30" height="30" viewBox="0 0 30 30" fill="none" xmlns="http://www.w3.org/2000/svg">
<g filter="url(#filter0_d_1116_448)">
<path d="M3 3C3 1.89543 3.89543 1 5 1H25C26.1046 1 27 1.89543 27 3V23C27 24.1046 26.1046 25 25 25H5C3.89543 25 3 24.1046 3 23V3Z" fill="#16161D" shape-rendering="crispEdges"/>
<path d="M25 0.5C26.3807 0.5 27.5 1.61929 27.5 3V23C27.5 24.3807 26.3807 25.5 25 25.5H5C3.61929 25.5 2.5 24.3807 2.5 23V3C2.5 1.61929 3.61929 0.5 5 0.5H25Z" stroke="#16161D" shape-rendering="crispEdges"/>
<path d="M15.1901 18.1796C13.0062 18.1607 11.6867 16.6253 11.7096 13.8174C11.7325 11.0095 13.0769 9.49704 15.2608 9.51588C16.7128 9.52841 17.6795 10.1848 18.2332 11.4376L17.0882 12.0517C16.8067 11.2573 16.2229 10.7362 15.2509 10.7278C13.967 10.7168 13.1674 11.6459 13.1547 13.1938L13.1443 14.4658C13.1317 16.0138 13.916 16.9566 15.2 16.9676C16.1959 16.9762 16.8366 16.4057 17.1433 15.5923L18.2298 16.2617C17.656 17.4688 16.642 18.1921 15.1901 18.1796Z" fill="#FEFBF4"/>
<path d="M9 17.8478V5.51367H21V17.8478" stroke="#FEFBF4"/>
</g>
<defs>
<filter id="filter0_d_1116_448" x="0" y="0" width="30" height="30" filterUnits="userSpaceOnUse" color-interpolation-filters="sRGB">
<feFlood flood-opacity="0" result="BackgroundImageFix"/>
<feColorMatrix in="SourceAlpha" type="matrix" values="0 0 0 0 0 0 0 0 0 0 0 0 0 0 0 0 0 0 127 0" result="hardAlpha"/>
<feOffset dy="2"/>
<feGaussianBlur stdDeviation="1"/>
<feComposite in2="hardAlpha" operator="out"/>
<feColorMatrix type="matrix" values="0 0 0 0 0 0 0 0 0 0 0 0 0 0 0 0 0 0 0.1 0"/>
<feBlend mode="normal" in2="BackgroundImageFix" result="effect1_dropShadow_1116_448"/>
<feBlend mode="normal" in="SourceGraphic" in2="effect1_dropShadow_1116_448" result="shape"/>
</filter>
</defs>
</svg>
