<svg width="40" height="40" viewBox="0 0 40 40" fill="none" xmlns="http://www.w3.org/2000/svg">
<path d="M35 1.25C37.0711 1.25 38.75 2.92893 38.75 5V35C38.75 37.0711 37.0711 38.75 35 38.75H5C2.92893 38.75 1.25 37.0711 1.25 35V5C1.25 2.92893 2.92893 1.25 5 1.25H35Z" fill="#951A74"/>
<path d="M35 1.25C37.0711 1.25 38.75 2.92893 38.75 5V35C38.75 37.0711 37.0711 38.75 35 38.75H5C2.92893 38.75 1.25 37.0711 1.25 35V5C1.25 2.92893 2.92893 1.25 5 1.25H35Z" stroke="#16161D" stroke-width="1.5"/>
<path d="M20.2966 26.2694C17.0208 26.2412 15.0415 23.938 15.0759 19.7262C15.1103 15.5143 17.1269 13.2456 20.4028 13.2739C22.5807 13.2927 24.0307 14.2772 24.8614 16.1564L23.1438 17.0777C22.7215 15.886 21.8459 15.1044 20.3879 15.0918C18.462 15.0752 17.2626 16.4689 17.2436 18.7908L17.228 20.6988C17.2091 23.0207 18.3856 24.4349 20.3115 24.4515C21.8054 24.4644 22.7665 23.6086 23.2264 22.3886L24.8563 23.3927C23.9955 25.2033 22.4746 26.2882 20.2966 26.2694Z" fill="#FEFBF4"/>
<path d="M11 27.2717V8.77051H29V27.2717" stroke="#FEFBF4" stroke-width="1.5"/>
</svg>
