<svg width="30" height="30" viewBox="0 0 30 30" fill="none" xmlns="http://www.w3.org/2000/svg">
<g filter="url(#filter0_d_1116_452)">
<path d="M3 3C3 1.89543 3.89543 1 5 1H25C26.1046 1 27 1.89543 27 3V23C27 24.1046 26.1046 25 25 25H5C3.89543 25 3 24.1046 3 23V3Z" fill="#16161D" shape-rendering="crispEdges"/>
<path d="M25 0.5C26.3807 0.5 27.5 1.61929 27.5 3V23C27.5 24.3807 26.3807 25.5 25 25.5H5C3.61929 25.5 2.5 24.3807 2.5 23V3C2.5 1.61929 3.61929 0.5 5 0.5H25Z" stroke="#16161D" shape-rendering="crispEdges"/>
<path d="M12.0474 18.0085L12.1158 9.63275L15.0797 9.65832C17.2156 9.67675 18.6082 11.0808 18.5853 13.8767C18.5625 16.6726 17.1472 18.0525 15.0113 18.034L12.0474 18.0085ZM13.4131 16.8202L15.0211 16.8341C16.269 16.8449 17.1156 16.0481 17.1279 14.5362L17.1389 13.1922C17.1512 11.6803 16.3178 10.869 15.0699 10.8583L13.4619 10.8444L13.4131 16.8202Z" fill="#FEFBF4"/>
<path d="M9 17.8478V5.51367H21V17.8478" stroke="#FEFBF4"/>
</g>
<defs>
<filter id="filter0_d_1116_452" x="0" y="0" width="30" height="30" filterUnits="userSpaceOnUse" color-interpolation-filters="sRGB">
<feFlood flood-opacity="0" result="BackgroundImageFix"/>
<feColorMatrix in="SourceAlpha" type="matrix" values="0 0 0 0 0 0 0 0 0 0 0 0 0 0 0 0 0 0 127 0" result="hardAlpha"/>
<feOffset dy="2"/>
<feGaussianBlur stdDeviation="1"/>
<feComposite in2="hardAlpha" operator="out"/>
<feColorMatrix type="matrix" values="0 0 0 0 0 0 0 0 0 0 0 0 0 0 0 0 0 0 0.1 0"/>
<feBlend mode="normal" in2="BackgroundImageFix" result="effect1_dropShadow_1116_452"/>
<feBlend mode="normal" in="SourceGraphic" in2="effect1_dropShadow_1116_452" result="shape"/>
</filter>
</defs>
</svg>
