<svg width="30" height="30" viewBox="0 0 30 30" fill="none" xmlns="http://www.w3.org/2000/svg">
<g filter="url(#filter0_d_774_1436)">
<path d="M3 3C3 1.89543 3.89543 1 5 1H25C26.1046 1 27 1.89543 27 3V23C27 24.1046 26.1046 25 25 25H5C3.89543 25 3 24.1046 3 23V3Z" fill="#67378D" shape-rendering="crispEdges"/>
<path d="M5 0.5C3.61929 0.5 2.5 1.61929 2.5 3V23C2.5 24.3807 3.61929 25.5 5 25.5H25C26.3807 25.5 27.5 24.3807 27.5 23V3C27.5 1.61929 26.3807 0.5 25 0.5H5Z" stroke="#16161D" shape-rendering="crispEdges"/>
<path d="M12.1158 9.63275L15.0797 9.65832C15.6157 9.66295 16.0989 9.75512 16.5295 9.93484C16.968 10.1146 17.3378 10.3818 17.639 10.7364C17.9481 11.0831 18.1846 11.5212 18.3482 12.0506C18.512 12.572 18.591 13.1807 18.5853 13.8767C18.5797 14.5727 18.4907 15.184 18.3184 15.7105C18.1461 16.229 17.9026 16.6629 17.5877 17.0122C17.2809 17.3536 16.9068 17.6104 16.4654 17.7826C16.0319 17.9548 15.5472 18.0387 15.0113 18.034L12.0474 18.0085L12.1158 9.63275ZM15.0211 16.8341C15.645 16.8395 16.1506 16.6478 16.5378 16.2591C16.925 15.8705 17.1217 15.2961 17.1279 14.5362L17.1389 13.1922C17.1451 12.4322 16.9578 11.8546 16.577 11.4593C16.1962 11.064 15.6938 10.8637 15.0699 10.8583L13.4619 10.8444L13.4131 16.8202L15.0211 16.8341Z" fill="#FEFBF4"/>
<path d="M9 17.8478V5.51367H21V17.8478" stroke="#FEFBF4"/>
</g>
<defs>
<filter id="filter0_d_774_1436" x="0" y="0" width="30" height="30" filterUnits="userSpaceOnUse" color-interpolation-filters="sRGB">
<feFlood flood-opacity="0" result="BackgroundImageFix"/>
<feColorMatrix in="SourceAlpha" type="matrix" values="0 0 0 0 0 0 0 0 0 0 0 0 0 0 0 0 0 0 127 0" result="hardAlpha"/>
<feOffset dy="2"/>
<feGaussianBlur stdDeviation="1"/>
<feComposite in2="hardAlpha" operator="out"/>
<feColorMatrix type="matrix" values="0 0 0 0 0 0 0 0 0 0 0 0 0 0 0 0 0 0 0.1 0"/>
<feBlend mode="normal" in2="BackgroundImageFix" result="effect1_dropShadow_774_1436"/>
<feBlend mode="normal" in="SourceGraphic" in2="effect1_dropShadow_774_1436" result="shape"/>
</filter>
</defs>
</svg>
