<svg width="40" height="40" viewBox="0 0 40 40" fill="none" xmlns="http://www.w3.org/2000/svg">
<path d="M35 1.25C37.0711 1.25 38.75 2.92893 38.75 5V35C38.75 37.0711 37.0711 38.75 35 38.75H5C2.92893 38.75 1.25 37.0711 1.25 35V5C1.25 2.92893 2.92893 1.25 5 1.25H35Z" fill="#951A74"/>
<path d="M35 1.25C37.0711 1.25 38.75 2.92893 38.75 5V35C38.75 37.0711 37.0711 38.75 35 38.75H5C2.92893 38.75 1.25 37.0711 1.25 35V5C1.25 2.92893 2.92893 1.25 5 1.25H35Z" stroke="#16161D" stroke-width="1.5"/>
<path d="M15.5826 26.0128L15.6852 13.4492L20.131 13.4875C23.3349 13.5152 25.4238 15.6213 25.3895 19.8151C25.3553 24.009 23.2323 26.0788 20.0284 26.0511L15.5826 26.0128ZM17.6312 24.2304L20.0431 24.2512C21.915 24.2673 23.1849 23.0722 23.2034 20.8043L23.2198 18.7884C23.2384 16.5205 21.9883 15.3036 20.1163 15.2875L17.7044 15.2667L17.6312 24.2304Z" fill="#FEFBF4"/>
<path d="M11 27.2717V8.77051H29V27.2717" stroke="#FEFBF4" stroke-width="1.5"/>
</svg>
