<svg width="30" height="30" viewBox="0 0 30 30" fill="none" xmlns="http://www.w3.org/2000/svg">
<g filter="url(#filter0_d_1116_456)">
<path d="M3 3C3 1.89543 3.89543 1 5 1H25C26.1046 1 27 1.89543 27 3V23C27 24.1046 26.1046 25 25 25H5C3.89543 25 3 24.1046 3 23V3Z" fill="#16161D" shape-rendering="crispEdges"/>
<path d="M25 0.5C26.3807 0.5 27.5 1.61929 27.5 3V23C27.5 24.3807 26.3807 25.5 25 25.5H5C3.61929 25.5 2.5 24.3807 2.5 23V3C2.5 1.61929 3.61929 0.5 5 0.5H25Z" stroke="#16161D" shape-rendering="crispEdges"/>
<path d="M17.4112 18.0547L12.0474 18.0085L12.1158 9.63275L17.4796 9.67903L17.4698 10.879L13.4619 10.8444L13.4429 13.1723L17.0788 13.2037L17.069 14.4037L13.4331 14.3723L13.4131 16.8202L17.421 16.8548L17.4112 18.0547Z" fill="#FEFBF4"/>
<path d="M9 17.8478V5.51367H21V17.8478" stroke="#FEFBF4"/>
</g>
<defs>
<filter id="filter0_d_1116_456" x="0" y="0" width="30" height="30" filterUnits="userSpaceOnUse" color-interpolation-filters="sRGB">
<feFlood flood-opacity="0" result="BackgroundImageFix"/>
<feColorMatrix in="SourceAlpha" type="matrix" values="0 0 0 0 0 0 0 0 0 0 0 0 0 0 0 0 0 0 127 0" result="hardAlpha"/>
<feOffset dy="2"/>
<feGaussianBlur stdDeviation="1"/>
<feComposite in2="hardAlpha" operator="out"/>
<feColorMatrix type="matrix" values="0 0 0 0 0 0 0 0 0 0 0 0 0 0 0 0 0 0 0.1 0"/>
<feBlend mode="normal" in2="BackgroundImageFix" result="effect1_dropShadow_1116_456"/>
<feBlend mode="normal" in="SourceGraphic" in2="effect1_dropShadow_1116_456" result="shape"/>
</filter>
</defs>
</svg>
