<svg width="30" height="30" viewBox="0 0 30 30" fill="none" xmlns="http://www.w3.org/2000/svg">
<g filter="url(#filter0_d_1116_536)">
<path d="M3 3C3 1.89543 3.89543 1 5 1H25C26.1046 1 27 1.89543 27 3V23C27 24.1046 26.1046 25 25 25H5C3.89543 25 3 24.1046 3 23V3Z" fill="#484848" shape-rendering="crispEdges"/>
<path d="M25 0.5C26.3807 0.5 27.5 1.61929 27.5 3V23C27.5 24.3807 26.3807 25.5 25 25.5H5C3.61929 25.5 2.5 24.3807 2.5 23V3C2.5 1.61929 3.61929 0.5 5 0.5H25Z" stroke="#16161D" shape-rendering="crispEdges"/>
<path d="M20.9773 16.637C20.9589 16.5817 20.9297 16.5305 20.8914 16.4864C20.8532 16.4423 20.8066 16.4061 20.7544 16.38C20.7022 16.3539 20.6453 16.3383 20.5871 16.3342C20.5289 16.3301 20.4704 16.3375 20.415 16.3559L19.447 16.6787L17.8411 13.4674C17.8042 13.3936 17.7475 13.3316 17.6773 13.2882C17.6072 13.2448 17.5263 13.2218 17.4438 13.2218L12.9985 13.2218L12.9985 11.8884L16.1102 11.8884C16.2281 11.8884 16.3412 11.8415 16.4246 11.7582C16.5079 11.6748 16.5548 11.5618 16.5548 11.4439C16.5548 11.326 16.5079 11.2129 16.4246 11.1296C16.3412 11.0462 16.2281 10.9994 16.1102 10.9994L12.9985 10.9994L12.9985 10.4994C13.4175 10.3912 13.7827 10.1339 14.0256 9.77575C14.2685 9.4176 14.3724 8.98317 14.3179 8.55389C14.2634 8.1246 14.0541 7.72994 13.7294 7.44388C13.4047 7.15782 12.9867 7 12.5539 7C12.1211 7 11.7032 7.15782 11.3785 7.44388C11.0537 7.72994 10.8445 8.1246 10.79 8.55389C10.7354 8.98317 10.8394 9.4176 11.0823 9.77575C11.3252 10.1339 11.6904 10.3912 12.1094 10.4994L12.1094 11.1C11.1509 11.319 10.3066 11.8833 9.73774 12.6851C9.16884 13.4869 8.91516 14.4701 9.0251 15.447C9.13504 16.4239 9.60092 17.3262 10.3338 17.9815C11.0667 18.6369 12.0153 18.9994 12.9985 19C14.8611 19 16.5375 17.7382 16.9854 15.9998C17 15.9432 17.0033 15.8844 16.9952 15.8265C16.987 15.7687 16.9675 15.7131 16.9379 15.6628C16.9082 15.6125 16.8689 15.5685 16.8222 15.5334C16.7756 15.4982 16.7225 15.4727 16.6659 15.4581C16.6093 15.4435 16.5505 15.4402 16.4926 15.4483C16.4348 15.4565 16.3791 15.4759 16.3288 15.5056C16.2785 15.5353 16.2346 15.5746 16.1994 15.6212C16.1643 15.6679 16.1387 15.721 16.1241 15.7775C15.7818 17.111 14.4382 18.111 12.9985 18.111C12.2512 18.1108 11.529 17.8417 10.9638 17.3529C10.3986 16.8641 10.0283 16.1882 9.92037 15.4489C9.81248 14.7096 9.97429 13.9561 10.3762 13.3262C10.7782 12.6963 11.3934 12.2321 12.1094 12.0184L12.1094 13.6663C12.1094 13.7842 12.1562 13.8972 12.2396 13.9806C12.323 14.0639 12.436 14.1107 12.5539 14.1107L17.1688 14.1107L18.8241 17.421C18.8721 17.5166 18.953 17.5918 19.0519 17.6326C19.1508 17.6734 19.2611 17.6772 19.3626 17.6432L20.6962 17.1988C20.8079 17.1615 20.9003 17.0814 20.953 16.9761C21.0057 16.8707 21.0145 16.7488 20.9773 16.637ZM11.6649 8.77701C11.6649 8.6012 11.717 8.42933 11.8147 8.28314C11.9124 8.13695 12.0512 8.02301 12.2137 7.95573C12.3762 7.88844 12.5549 7.87084 12.7274 7.90514C12.8999 7.93944 13.0583 8.02411 13.1826 8.14843C13.3069 8.27275 13.3916 8.43115 13.4259 8.60359C13.4602 8.77603 13.4426 8.95477 13.3753 9.1172C13.308 9.27964 13.1941 9.41847 13.0479 9.51615C12.9017 9.61383 12.7298 9.66597 12.5539 9.66597C12.3181 9.66597 12.092 9.57231 11.9253 9.4056C11.7585 9.23889 11.6649 9.01278 11.6649 8.77701Z" fill="white"/>
</g>
<defs>
<filter id="filter0_d_1116_536" x="0" y="0" width="30" height="30" filterUnits="userSpaceOnUse" color-interpolation-filters="sRGB">
<feFlood flood-opacity="0" result="BackgroundImageFix"/>
<feColorMatrix in="SourceAlpha" type="matrix" values="0 0 0 0 0 0 0 0 0 0 0 0 0 0 0 0 0 0 127 0" result="hardAlpha"/>
<feOffset dy="2"/>
<feGaussianBlur stdDeviation="1"/>
<feComposite in2="hardAlpha" operator="out"/>
<feColorMatrix type="matrix" values="0 0 0 0 0 0 0 0 0 0 0 0 0 0 0 0 0 0 0.1 0"/>
<feBlend mode="normal" in2="BackgroundImageFix" result="effect1_dropShadow_1116_536"/>
<feBlend mode="normal" in="SourceGraphic" in2="effect1_dropShadow_1116_536" result="shape"/>
</filter>
</defs>
</svg>
