<svg width="28" height="24" viewBox="0 0 28 24" fill="none" xmlns="http://www.w3.org/2000/svg">
<path d="M7.06 17.7C9.1 19.94 11.28 22.04 13.6 24C15.92 22.04 18.1 19.94 20.14 17.7C22.18 15.46 23.2 12.84 23.2 9.84C23.2 7.12 22.27 4.8 20.41 2.88C18.55 0.96 16.28 0 13.6 0C10.92 0 8.65 0.96 6.79 2.88C4.93 4.8 4 7.12 4 9.84C4 12.84 5.02 15.46 7.06 17.7Z" fill="#EA4236"/>
<path d="M18.4 9.6C18.4 12.251 16.251 14.4 13.6 14.4C10.949 14.4 8.8 12.251 8.8 9.6C8.8 6.94904 10.949 4.8 13.6 4.8C16.251 4.8 18.4 6.94904 18.4 9.6Z" fill="#A50E0F"/>
</svg>
