<svg width="30" height="30" viewBox="0 0 30 30" fill="none" xmlns="http://www.w3.org/2000/svg">
<g filter="url(#filter0_d_774_1441)">
<path d="M3 3C3 1.89543 3.89543 1 5 1H25C26.1046 1 27 1.89543 27 3V23C27 24.1046 26.1046 25 25 25H5C3.89543 25 3 24.1046 3 23V3Z" fill="#67378D" shape-rendering="crispEdges"/>
<path d="M5 0.5C3.61929 0.5 2.5 1.61929 2.5 3V23C2.5 24.3807 3.61929 25.5 5 25.5H25C26.3807 25.5 27.5 24.3807 27.5 23V3C27.5 1.61929 26.3807 0.5 25 0.5H5Z" stroke="#16161D" shape-rendering="crispEdges"/>
<path d="M17.4456 16.783L17.3976 16.7826C17.3062 17.1898 17.0635 17.5277 16.6693 17.7963C16.2831 18.057 15.7701 18.1846 15.1301 18.1791C14.6341 18.1748 14.1749 18.0788 13.7524 17.8912C13.33 17.6955 12.9642 17.4164 12.6552 17.0537C12.3542 16.6831 12.1179 16.229 11.9463 15.6915C11.7827 15.1461 11.7038 14.5214 11.7096 13.8174C11.7153 13.1214 11.8083 12.5062 11.9887 11.9717C12.1691 11.4293 12.4208 10.9754 12.7438 10.6102C13.0668 10.245 13.4531 9.9723 13.9025 9.79217C14.3521 9.60404 14.8529 9.51236 15.4048 9.51712C16.1568 9.52361 16.7914 9.69709 17.3086 10.0376C17.826 10.37 18.2262 10.8335 18.5093 11.428L17.4001 12.0664C17.2433 11.6731 16.9979 11.3549 16.6639 11.112C16.3299 10.8612 15.9069 10.7335 15.3949 10.7291C14.731 10.7234 14.1932 10.9307 13.7818 11.3512C13.3784 11.7717 13.1735 12.37 13.1671 13.146L13.156 14.5139C13.1496 15.2899 13.3447 15.8916 13.7412 16.319C14.1458 16.7465 14.68 16.9631 15.344 16.9689C15.608 16.9712 15.8602 16.9413 16.1007 16.8794C16.3413 16.8095 16.5501 16.7113 16.7272 16.5848C16.9123 16.4504 17.0576 16.2876 17.1632 16.0965C17.2768 15.8975 17.3347 15.666 17.3368 15.402L17.3421 14.754L15.6142 14.7391L15.6237 13.5752L18.6596 13.6014L18.6231 18.0652L17.4352 18.055L17.4456 16.783Z" fill="#FEFBF4"/>
<path d="M9 17.8478V5.51367H21V17.8478" stroke="#FEFBF4"/>
</g>
<defs>
<filter id="filter0_d_774_1441" x="0" y="0" width="30" height="30" filterUnits="userSpaceOnUse" color-interpolation-filters="sRGB">
<feFlood flood-opacity="0" result="BackgroundImageFix"/>
<feColorMatrix in="SourceAlpha" type="matrix" values="0 0 0 0 0 0 0 0 0 0 0 0 0 0 0 0 0 0 127 0" result="hardAlpha"/>
<feOffset dy="2"/>
<feGaussianBlur stdDeviation="1"/>
<feComposite in2="hardAlpha" operator="out"/>
<feColorMatrix type="matrix" values="0 0 0 0 0 0 0 0 0 0 0 0 0 0 0 0 0 0 0.1 0"/>
<feBlend mode="normal" in2="BackgroundImageFix" result="effect1_dropShadow_774_1441"/>
<feBlend mode="normal" in="SourceGraphic" in2="effect1_dropShadow_774_1441" result="shape"/>
</filter>
</defs>
</svg>
