<svg width="30" height="30" viewBox="0 0 30 30" fill="none" xmlns="http://www.w3.org/2000/svg">
<g filter="url(#filter0_d_1116_464)">
<path d="M3 3C3 1.89543 3.89543 1 5 1H25C26.1046 1 27 1.89543 27 3V23C27 24.1046 26.1046 25 25 25H5C3.89543 25 3 24.1046 3 23V3Z" fill="#16161D" shape-rendering="crispEdges"/>
<path d="M25 0.5C26.3807 0.5 27.5 1.61929 27.5 3V23C27.5 24.3807 26.3807 25.5 25 25.5H5C3.61929 25.5 2.5 24.3807 2.5 23V3C2.5 1.61929 3.61929 0.5 5 0.5H25Z" stroke="#16161D" shape-rendering="crispEdges"/>
<path d="M17.4352 18.055L17.4456 16.783L17.3976 16.7826C17.223 17.5851 16.402 18.19 15.1301 18.1791C13.1382 18.1619 11.6867 16.6253 11.7096 13.8174C11.7324 11.0215 13.2089 9.49818 15.4048 9.51712C16.9048 9.53006 17.943 10.247 18.5093 11.428L17.4001 12.0664C17.0825 11.2837 16.4149 10.7379 15.3949 10.7291C14.075 10.7177 13.1797 11.61 13.1671 13.146L13.156 14.5139C13.1434 16.0499 14.024 16.9575 15.344 16.9689C16.3999 16.978 17.3283 16.446 17.3368 15.402L17.3421 14.754L15.6142 14.7391L15.6237 13.5752L18.6596 13.6014L18.6231 18.0652L17.4352 18.055Z" fill="#FEFBF4"/>
<path d="M9 17.8478V5.51367H21V17.8478" stroke="#FEFBF4"/>
</g>
<defs>
<filter id="filter0_d_1116_464" x="0" y="0" width="30" height="30" filterUnits="userSpaceOnUse" color-interpolation-filters="sRGB">
<feFlood flood-opacity="0" result="BackgroundImageFix"/>
<feColorMatrix in="SourceAlpha" type="matrix" values="0 0 0 0 0 0 0 0 0 0 0 0 0 0 0 0 0 0 127 0" result="hardAlpha"/>
<feOffset dy="2"/>
<feGaussianBlur stdDeviation="1"/>
<feComposite in2="hardAlpha" operator="out"/>
<feColorMatrix type="matrix" values="0 0 0 0 0 0 0 0 0 0 0 0 0 0 0 0 0 0 0.1 0"/>
<feBlend mode="normal" in2="BackgroundImageFix" result="effect1_dropShadow_1116_464"/>
<feBlend mode="normal" in="SourceGraphic" in2="effect1_dropShadow_1116_464" result="shape"/>
</filter>
</defs>
</svg>
