<svg width="40" height="40" viewBox="0 0 40 40" fill="none" xmlns="http://www.w3.org/2000/svg">
<path d="M35 1.25C37.0711 1.25 38.75 2.92893 38.75 5V35C38.75 37.0711 37.0711 38.75 35 38.75H5C2.92893 38.75 1.25 37.0711 1.25 35V5C1.25 2.92893 2.92893 1.25 5 1.25H35Z" fill="#951A74"/>
<path d="M35 1.25C37.0711 1.25 38.75 2.92893 38.75 5V35C38.75 37.0711 37.0711 38.75 35 38.75H5C2.92893 38.75 1.25 37.0711 1.25 35V5C1.25 2.92893 2.92893 1.25 5 1.25H35Z" stroke="#16161D" stroke-width="1.5"/>
<path d="M23.6643 26.0825L23.6799 24.1745L23.6079 24.1739C23.346 25.3777 22.1146 26.2851 20.2066 26.2687C17.2188 26.2429 15.0415 23.938 15.0759 19.7262C15.1102 15.5323 17.3249 13.2473 20.6188 13.2757C22.8687 13.2951 24.426 14.3706 25.2755 16.142L23.6116 17.0997C23.1352 15.9255 22.1339 15.1069 20.6039 15.0937C18.624 15.0766 17.281 16.4151 17.2622 18.719L17.2454 20.7709C17.2266 23.0748 18.5476 24.4363 20.5275 24.4534C22.1114 24.467 23.504 23.669 23.5168 22.1031L23.5247 21.1311L20.9328 21.1087L20.9471 19.3628L25.5009 19.4021L25.4462 26.0979L23.6643 26.0825Z" fill="#FEFBF4"/>
<path d="M11 27.2717V8.77051H29V27.2717" stroke="#FEFBF4" stroke-width="1.5"/>
</svg>
