<svg width="147" height="54" viewBox="0 0 147 54" fill="none" xmlns="http://www.w3.org/2000/svg">
<circle cx="8" cy="45" r="7.5" fill="#0F883B" stroke="white"/>
<g filter="url(#filter0_d_1177_138275)">
<path d="M8 2C8 0.89543 8.89543 0 10 0H141C142.105 0 143 0.895431 143 2V44C143 45.1046 142.105 46 141 46H10C8.89543 46 8 45.1046 8 44V2Z" fill="#0F883B" shape-rendering="crispEdges"/>
<path d="M10 0.5H141C141.828 0.5 142.5 1.17157 142.5 2V44C142.5 44.8284 141.828 45.5 141 45.5H10C9.17157 45.5 8.5 44.8284 8.5 44V2C8.5 1.17157 9.17157 0.5 10 0.5Z" stroke="#0D381D" shape-rendering="crispEdges"/>
<path d="M19.206 18H17.078V8.228H21.698C23.518 8.228 24.666 9.502 24.666 11.35C24.666 13.198 23.518 14.472 21.698 14.472H19.206V18ZM19.206 10.076V12.624H21.446C22.076 12.624 22.468 12.288 22.468 11.658V11.042C22.468 10.412 22.076 10.076 21.446 10.076H19.206ZM29.1495 18H28.2115C26.7975 18 26.1535 17.286 26.1535 15.984V7.64H28.2255V16.39H29.1495V18ZM36.9718 18H35.8238C35.0818 18 34.5498 17.496 34.4238 16.712H34.3398C34.1158 17.664 33.3038 18.168 32.1838 18.168C30.7138 18.168 29.9018 17.3 29.9018 16.026C29.9018 14.472 31.1058 13.73 33.0518 13.73H34.2138V13.268C34.2138 12.554 33.8638 12.106 32.9958 12.106C32.1698 12.106 31.7358 12.526 31.4138 12.974L30.1818 11.882C30.7698 11.014 31.6098 10.482 33.1498 10.482C35.2218 10.482 36.2858 11.434 36.2858 13.17V16.39H36.9718V18ZM32.9538 16.726C33.6398 16.726 34.2138 16.446 34.2138 15.774V14.906H33.2058C32.4078 14.906 31.9878 15.2 31.9878 15.732V15.942C31.9878 16.474 32.3378 16.726 32.9538 16.726ZM42.0885 18H40.8565C39.4285 18 38.6725 17.258 38.6725 15.858V12.26H37.6365V10.65H38.1545C38.7145 10.65 38.8825 10.37 38.8825 9.866V8.662H40.7445V10.65H42.2005V12.26H40.7445V16.39H42.0885V18ZM44.0038 18V12.26H42.9678V10.65H44.0038V9.782C44.0038 8.368 44.7738 7.64 46.2018 7.64H47.5458V9.25H46.0758V10.65H47.5458V12.26H46.0758V18H44.0038ZM51.6257 18.168C49.4697 18.168 48.1817 16.684 48.1817 14.318C48.1817 11.952 49.4697 10.482 51.6257 10.482C53.7817 10.482 55.0697 11.952 55.0697 14.318C55.0697 16.684 53.7817 18.168 51.6257 18.168ZM51.6257 16.53C52.4377 16.53 52.9137 15.998 52.9137 15.074V13.576C52.9137 12.652 52.4377 12.12 51.6257 12.12C50.8137 12.12 50.3377 12.652 50.3377 13.576V15.074C50.3377 15.998 50.8137 16.53 51.6257 16.53ZM58.6181 18H56.5461V10.65H58.6181V12.246H58.6881C58.8561 11.434 59.4161 10.65 60.5641 10.65H60.9281V12.582H60.4101C59.2061 12.582 58.6181 12.848 58.6181 13.702V18ZM64.2782 18H62.2062V10.65H64.2782V11.896H64.3622C64.6282 11.112 65.2442 10.482 66.3362 10.482C67.3442 10.482 68.0722 11 68.3942 11.966H68.4362C68.7022 11.14 69.5562 10.482 70.6762 10.482C72.0902 10.482 72.8742 11.546 72.8742 13.394V18H70.8022V13.562C70.8022 12.61 70.4802 12.162 69.7942 12.162C69.1782 12.162 68.5762 12.512 68.5762 13.24V18H66.5042V13.562C66.5042 12.61 66.1682 12.162 65.4962 12.162C64.8942 12.162 64.2782 12.512 64.2782 13.24V18ZM83.7786 18H81.7766V16.124H77.4786V14.332L81.2866 8.228H83.7786V14.5H85.0106V16.124H83.7786V18ZM81.6366 10.398L79.1586 14.5H81.7766V10.398H81.6366Z" fill="white"/>
<path d="M18.664 39C18.208 39 17.864 38.884 17.632 38.652C17.4 38.412 17.284 38.076 17.284 37.644V33.828H16.312V32.76H16.84C17.056 32.76 17.204 32.712 17.284 32.616C17.372 32.52 17.416 32.364 17.416 32.148V31.056H18.592V32.76H19.9V33.828H18.592V37.932H19.804V39H18.664ZM23.7199 39.144C23.2879 39.144 22.8919 39.068 22.5319 38.916C22.1799 38.764 21.8799 38.548 21.6319 38.268C21.3839 37.98 21.1919 37.636 21.0559 37.236C20.9199 36.828 20.8519 36.376 20.8519 35.88C20.8519 35.384 20.9199 34.936 21.0559 34.536C21.1919 34.128 21.3839 33.784 21.6319 33.504C21.8799 33.216 22.1799 32.996 22.5319 32.844C22.8919 32.692 23.2879 32.616 23.7199 32.616C24.1519 32.616 24.5439 32.692 24.8959 32.844C25.2559 32.996 25.5599 33.216 25.8079 33.504C26.0559 33.784 26.2479 34.128 26.3839 34.536C26.5199 34.936 26.5879 35.384 26.5879 35.88C26.5879 36.376 26.5199 36.828 26.3839 37.236C26.2479 37.636 26.0559 37.98 25.8079 38.268C25.5599 38.548 25.2559 38.764 24.8959 38.916C24.5439 39.068 24.1519 39.144 23.7199 39.144ZM23.7199 38.064C24.1679 38.064 24.5279 37.928 24.7999 37.656C25.0719 37.376 25.2079 36.96 25.2079 36.408V35.352C25.2079 34.8 25.0719 34.388 24.7999 34.116C24.5279 33.836 24.1679 33.696 23.7199 33.696C23.2719 33.696 22.9119 33.836 22.6399 34.116C22.3679 34.388 22.2319 34.8 22.2319 35.352V36.408C22.2319 36.96 22.3679 37.376 22.6399 37.656C22.9119 37.928 23.2719 38.064 23.7199 38.064ZM27.3393 32.76H28.6113L29.2473 35.376L29.8113 37.74H29.8473L30.4953 35.376L31.2513 32.76H32.4273L33.1953 35.376L33.8553 37.74H33.8913L34.4433 35.376L35.0913 32.76H36.3033L34.6233 39H33.1473L32.3313 36.156L31.8273 34.404H31.8033L31.3113 36.156L30.4833 39H29.0433L27.3393 32.76ZM41.9924 39C41.6484 39 41.3844 38.904 41.2004 38.712C41.0164 38.512 40.9044 38.26 40.8644 37.956H40.8044C40.6844 38.348 40.4644 38.644 40.1444 38.844C39.8244 39.044 39.4364 39.144 38.9804 39.144C38.3324 39.144 37.8324 38.976 37.4804 38.64C37.1364 38.304 36.9644 37.852 36.9644 37.284C36.9644 36.66 37.1884 36.192 37.6364 35.88C38.0924 35.568 38.7564 35.412 39.6284 35.412H40.7564V34.884C40.7564 34.5 40.6524 34.204 40.4444 33.996C40.2364 33.788 39.9124 33.684 39.4724 33.684C39.1044 33.684 38.8044 33.764 38.5724 33.924C38.3404 34.084 38.1444 34.288 37.9844 34.536L37.2044 33.828C37.4124 33.476 37.7044 33.188 38.0804 32.964C38.4564 32.732 38.9484 32.616 39.5564 32.616C40.3644 32.616 40.9844 32.804 41.4164 33.18C41.8484 33.556 42.0644 34.096 42.0644 34.8V37.932H42.7244V39H41.9924ZM39.3524 38.148C39.7604 38.148 40.0964 38.06 40.3604 37.884C40.6244 37.7 40.7564 37.456 40.7564 37.152V36.252H39.6524C38.7484 36.252 38.2964 36.532 38.2964 37.092V37.308C38.2964 37.588 38.3884 37.8 38.5724 37.944C38.7644 38.08 39.0244 38.148 39.3524 38.148ZM44.0063 39V32.76H45.3143V33.96H45.3743C45.4623 33.64 45.6463 33.36 45.9263 33.12C46.2063 32.88 46.5943 32.76 47.0903 32.76H47.4383V34.02H46.9223C46.4023 34.02 46.0023 34.104 45.7223 34.272C45.4503 34.44 45.3143 34.688 45.3143 35.016V39H44.0063ZM52.4655 37.968H52.4055C52.2695 38.336 52.0455 38.624 51.7335 38.832C51.4295 39.04 51.0695 39.144 50.6535 39.144C49.8615 39.144 49.2495 38.86 48.8175 38.292C48.3855 37.716 48.1695 36.912 48.1695 35.88C48.1695 34.848 48.3855 34.048 48.8175 33.48C49.2495 32.904 49.8615 32.616 50.6535 32.616C51.0695 32.616 51.4295 32.72 51.7335 32.928C52.0455 33.128 52.2695 33.416 52.4055 33.792H52.4655V30.12H53.7735V39H52.4655V37.968ZM51.0495 38.016C51.4495 38.016 51.7855 37.92 52.0575 37.728C52.3295 37.528 52.4655 37.268 52.4655 36.948V34.812C52.4655 34.492 52.3295 34.236 52.0575 34.044C51.7855 33.844 51.4495 33.744 51.0495 33.744C50.5935 33.744 50.2295 33.892 49.9575 34.188C49.6855 34.476 49.5495 34.86 49.5495 35.34V36.42C49.5495 36.9 49.6855 37.288 49.9575 37.584C50.2295 37.872 50.5935 38.016 51.0495 38.016ZM57.623 39.144C57.031 39.144 56.535 39.04 56.135 38.832C55.735 38.624 55.387 38.336 55.091 37.968L55.931 37.2C56.163 37.48 56.419 37.7 56.699 37.86C56.987 38.012 57.319 38.088 57.695 38.088C58.079 38.088 58.363 38.016 58.547 37.872C58.739 37.72 58.835 37.512 58.835 37.248C58.835 37.048 58.767 36.88 58.631 36.744C58.503 36.6 58.275 36.508 57.947 36.468L57.371 36.396C56.731 36.316 56.227 36.132 55.859 35.844C55.499 35.548 55.319 35.112 55.319 34.536C55.319 34.232 55.375 33.964 55.487 33.732C55.599 33.492 55.755 33.292 55.955 33.132C56.163 32.964 56.407 32.836 56.687 32.748C56.975 32.66 57.291 32.616 57.635 32.616C58.195 32.616 58.651 32.704 59.003 32.88C59.363 33.056 59.683 33.3 59.963 33.612L59.159 34.38C58.999 34.188 58.787 34.024 58.523 33.888C58.267 33.744 57.971 33.672 57.635 33.672C57.275 33.672 57.007 33.744 56.831 33.888C56.663 34.032 56.579 34.22 56.579 34.452C56.579 34.692 56.655 34.872 56.807 34.992C56.959 35.112 57.203 35.2 57.539 35.256L58.115 35.328C58.803 35.432 59.303 35.636 59.615 35.94C59.935 36.236 60.095 36.636 60.095 37.14C60.095 37.444 60.035 37.72 59.915 37.968C59.803 38.208 59.639 38.416 59.423 38.592C59.207 38.768 58.947 38.904 58.643 39C58.339 39.096 57.999 39.144 57.623 39.144ZM67.0127 39.144C66.3087 39.144 65.7087 39.016 65.2127 38.76C64.7247 38.504 64.3047 38.16 63.9527 37.728L64.8887 36.852C65.1847 37.212 65.5087 37.484 65.8607 37.668C66.2207 37.852 66.6287 37.944 67.0847 37.944C67.6207 37.944 68.0247 37.824 68.2967 37.584C68.5687 37.344 68.7047 37.02 68.7047 36.612C68.7047 36.284 68.6087 36.024 68.4167 35.832C68.2247 35.64 67.8847 35.496 67.3967 35.4L66.6527 35.268C65.8367 35.116 65.2247 34.848 64.8167 34.464C64.4087 34.08 64.2047 33.552 64.2047 32.88C64.2047 32.512 64.2727 32.18 64.4087 31.884C64.5527 31.58 64.7487 31.328 64.9967 31.128C65.2527 30.92 65.5607 30.76 65.9207 30.648C66.2807 30.536 66.6847 30.48 67.1327 30.48C67.7647 30.48 68.3127 30.592 68.7767 30.816C69.2407 31.032 69.6367 31.348 69.9647 31.764L69.0167 32.604C68.8007 32.324 68.5367 32.1 68.2247 31.932C67.9127 31.764 67.5247 31.68 67.0607 31.68C66.5807 31.68 66.2087 31.776 65.9447 31.968C65.6807 32.16 65.5487 32.44 65.5487 32.808C65.5487 33.16 65.6567 33.424 65.8727 33.6C66.0887 33.768 66.4247 33.896 66.8807 33.984L67.6247 34.14C68.4647 34.3 69.0767 34.572 69.4607 34.956C69.8527 35.34 70.0487 35.868 70.0487 36.54C70.0487 36.932 69.9807 37.288 69.8447 37.608C69.7087 37.928 69.5087 38.204 69.2447 38.436C68.9887 38.66 68.6727 38.836 68.2967 38.964C67.9207 39.084 67.4927 39.144 67.0127 39.144ZM72.2405 31.644C71.9685 31.644 71.7685 31.58 71.6405 31.452C71.5205 31.324 71.4605 31.16 71.4605 30.96V30.756C71.4605 30.556 71.5205 30.392 71.6405 30.264C71.7685 30.136 71.9685 30.072 72.2405 30.072C72.5125 30.072 72.7085 30.136 72.8285 30.264C72.9485 30.392 73.0085 30.556 73.0085 30.756V30.96C73.0085 31.16 72.9485 31.324 72.8285 31.452C72.7085 31.58 72.5125 31.644 72.2405 31.644ZM71.5805 32.76H72.8885V39H71.5805V32.76ZM76.0883 39C75.6403 39 75.3043 38.888 75.0803 38.664C74.8643 38.432 74.7563 38.112 74.7563 37.704V30.12H76.0643V37.932H76.9283V39H76.0883ZM78.1782 30.12H79.4862V35.568H79.5462L80.4102 34.452L81.9102 32.76H83.4342L81.2502 35.172L83.6982 39H82.1382L80.3502 36.024L79.4862 36.96V39H78.1782V30.12ZM87.3126 39V37.896H88.4526V31.728H87.3126V30.624H90.9606V31.728H89.8086V37.896H90.9606V39H87.3126ZM92.5688 39V32.76H93.8768V33.792H93.9368C94.0728 33.456 94.2768 33.176 94.5488 32.952C94.8288 32.728 95.2088 32.616 95.6888 32.616C96.3288 32.616 96.8248 32.828 97.1768 33.252C97.5368 33.668 97.7168 34.264 97.7168 35.04V39H96.4088V35.208C96.4088 34.232 96.0168 33.744 95.2328 33.744C95.0648 33.744 94.8968 33.768 94.7288 33.816C94.5688 33.856 94.4248 33.92 94.2968 34.008C94.1688 34.096 94.0648 34.208 93.9848 34.344C93.9128 34.48 93.8768 34.64 93.8768 34.824V39H92.5688ZM101.51 39.144C100.918 39.144 100.422 39.04 100.022 38.832C99.6218 38.624 99.2738 38.336 98.9778 37.968L99.8178 37.2C100.05 37.48 100.306 37.7 100.586 37.86C100.874 38.012 101.206 38.088 101.582 38.088C101.966 38.088 102.25 38.016 102.434 37.872C102.626 37.72 102.722 37.512 102.722 37.248C102.722 37.048 102.654 36.88 102.518 36.744C102.39 36.6 102.162 36.508 101.834 36.468L101.258 36.396C100.618 36.316 100.114 36.132 99.7458 35.844C99.3858 35.548 99.2058 35.112 99.2058 34.536C99.2058 34.232 99.2618 33.964 99.3738 33.732C99.4858 33.492 99.6418 33.292 99.8418 33.132C100.05 32.964 100.294 32.836 100.574 32.748C100.862 32.66 101.178 32.616 101.522 32.616C102.082 32.616 102.538 32.704 102.89 32.88C103.25 33.056 103.57 33.3 103.85 33.612L103.046 34.38C102.886 34.188 102.674 34.024 102.41 33.888C102.154 33.744 101.858 33.672 101.522 33.672C101.162 33.672 100.894 33.744 100.718 33.888C100.55 34.032 100.466 34.22 100.466 34.452C100.466 34.692 100.542 34.872 100.694 34.992C100.846 35.112 101.09 35.2 101.426 35.256L102.002 35.328C102.69 35.432 103.19 35.636 103.502 35.94C103.822 36.236 103.982 36.636 103.982 37.14C103.982 37.444 103.922 37.72 103.802 37.968C103.69 38.208 103.526 38.416 103.31 38.592C103.094 38.768 102.834 38.904 102.53 39C102.226 39.096 101.886 39.144 101.51 39.144ZM107.105 39C106.649 39 106.305 38.884 106.073 38.652C105.841 38.412 105.725 38.076 105.725 37.644V33.828H104.753V32.76H105.281C105.497 32.76 105.645 32.712 105.725 32.616C105.813 32.52 105.857 32.364 105.857 32.148V31.056H107.033V32.76H108.341V33.828H107.033V37.932H108.245V39H107.105ZM110.42 31.644C110.148 31.644 109.948 31.58 109.82 31.452C109.7 31.324 109.64 31.16 109.64 30.96V30.756C109.64 30.556 109.7 30.392 109.82 30.264C109.948 30.136 110.148 30.072 110.42 30.072C110.692 30.072 110.888 30.136 111.008 30.264C111.128 30.392 111.188 30.556 111.188 30.756V30.96C111.188 31.16 111.128 31.324 111.008 31.452C110.888 31.58 110.692 31.644 110.42 31.644ZM109.76 32.76H111.068V39H109.76V32.76ZM114.664 39C114.208 39 113.864 38.884 113.632 38.652C113.4 38.412 113.284 38.076 113.284 37.644V33.828H112.312V32.76H112.84C113.056 32.76 113.204 32.712 113.284 32.616C113.372 32.52 113.416 32.364 113.416 32.148V31.056H114.592V32.76H115.9V33.828H114.592V37.932H115.804V39H114.664ZM121.099 37.968H121.051C120.995 38.12 120.919 38.268 120.823 38.412C120.735 38.556 120.619 38.684 120.475 38.796C120.339 38.9 120.171 38.984 119.971 39.048C119.779 39.112 119.555 39.144 119.299 39.144C118.651 39.144 118.147 38.936 117.787 38.52C117.435 38.104 117.259 37.508 117.259 36.732V32.76H118.567V36.564C118.567 37.532 118.967 38.016 119.767 38.016C119.935 38.016 120.099 37.996 120.259 37.956C120.419 37.908 120.559 37.84 120.679 37.752C120.807 37.664 120.907 37.552 120.979 37.416C121.059 37.28 121.099 37.12 121.099 36.936V32.76H122.407V39H121.099V37.968ZM126.008 39C125.552 39 125.208 38.884 124.976 38.652C124.744 38.412 124.628 38.076 124.628 37.644V33.828H123.656V32.76H124.184C124.4 32.76 124.548 32.712 124.628 32.616C124.716 32.52 124.76 32.364 124.76 32.148V31.056H125.936V32.76H127.244V33.828H125.936V37.932H127.148V39H126.008ZM131.064 39.144C130.616 39.144 130.216 39.068 129.864 38.916C129.512 38.764 129.212 38.548 128.964 38.268C128.716 37.98 128.524 37.636 128.388 37.236C128.26 36.828 128.196 36.376 128.196 35.88C128.196 35.384 128.26 34.936 128.388 34.536C128.524 34.128 128.716 33.784 128.964 33.504C129.212 33.216 129.512 32.996 129.864 32.844C130.216 32.692 130.616 32.616 131.064 32.616C131.52 32.616 131.92 32.696 132.264 32.856C132.616 33.016 132.908 33.24 133.14 33.528C133.372 33.808 133.544 34.136 133.656 34.512C133.776 34.888 133.836 35.292 133.836 35.724V36.216H129.552V36.42C129.552 36.9 129.692 37.296 129.972 37.608C130.26 37.912 130.668 38.064 131.196 38.064C131.58 38.064 131.904 37.98 132.168 37.812C132.432 37.644 132.656 37.416 132.84 37.128L133.608 37.884C133.376 38.268 133.04 38.576 132.6 38.808C132.16 39.032 131.648 39.144 131.064 39.144ZM131.064 33.636C130.84 33.636 130.632 33.676 130.44 33.756C130.256 33.836 130.096 33.948 129.96 34.092C129.832 34.236 129.732 34.408 129.66 34.608C129.588 34.808 129.552 35.028 129.552 35.268V35.352H132.456V35.232C132.456 34.752 132.332 34.368 132.084 34.08C131.836 33.784 131.496 33.636 131.064 33.636Z" fill="white"/>
</g>
<defs>
<filter id="filter0_d_1177_138275" x="4" y="0" width="143" height="54" filterUnits="userSpaceOnUse" color-interpolation-filters="sRGB">
<feFlood flood-opacity="0" result="BackgroundImageFix"/>
<feColorMatrix in="SourceAlpha" type="matrix" values="0 0 0 0 0 0 0 0 0 0 0 0 0 0 0 0 0 0 127 0" result="hardAlpha"/>
<feOffset dy="4"/>
<feGaussianBlur stdDeviation="2"/>
<feComposite in2="hardAlpha" operator="out"/>
<feColorMatrix type="matrix" values="0 0 0 0 0 0 0 0 0 0 0 0 0 0 0 0 0 0 0.25 0"/>
<feBlend mode="normal" in2="BackgroundImageFix" result="effect1_dropShadow_1177_138275"/>
<feBlend mode="normal" in="SourceGraphic" in2="effect1_dropShadow_1177_138275" result="shape"/>
</filter>
</defs>
</svg>
