<svg width="130" height="62" viewBox="0 0 130 62" fill="none" xmlns="http://www.w3.org/2000/svg">
<circle cx="122" cy="8" r="7.5" fill="#0F883B" stroke="white"/>
<g filter="url(#filter0_d_1177_138265)">
<rect x="4" y="8" width="118" height="46" rx="2" fill="#0F883B" shape-rendering="crispEdges"/>
<rect x="4.5" y="8.5" width="117" height="45" rx="1.5" stroke="#0D381D" shape-rendering="crispEdges"/>
<path d="M47.7529 26H45.6249V16.228H50.2449C52.0649 16.228 53.2129 17.502 53.2129 19.35C53.2129 21.198 52.0649 22.472 50.2449 22.472H47.7529V26ZM47.7529 18.076V20.624H49.9929C50.6229 20.624 51.0149 20.288 51.0149 19.658V19.042C51.0149 18.412 50.6229 18.076 49.9929 18.076H47.7529ZM57.6964 26H56.7584C55.3444 26 54.7004 25.286 54.7004 23.984V15.64H56.7724V24.39H57.6964V26ZM65.5187 26H64.3707C63.6287 26 63.0967 25.496 62.9707 24.712H62.8867C62.6627 25.664 61.8507 26.168 60.7307 26.168C59.2607 26.168 58.4487 25.3 58.4487 24.026C58.4487 22.472 59.6527 21.73 61.5987 21.73H62.7607V21.268C62.7607 20.554 62.4107 20.106 61.5427 20.106C60.7167 20.106 60.2827 20.526 59.9607 20.974L58.7287 19.882C59.3167 19.014 60.1567 18.482 61.6967 18.482C63.7687 18.482 64.8327 19.434 64.8327 21.17V24.39H65.5187V26ZM61.5007 24.726C62.1867 24.726 62.7607 24.446 62.7607 23.774V22.906H61.7527C60.9547 22.906 60.5347 23.2 60.5347 23.732V23.942C60.5347 24.474 60.8847 24.726 61.5007 24.726ZM70.6353 26H69.4033C67.9753 26 67.2193 25.258 67.2193 23.858V20.26H66.1833V18.65H66.7013C67.2613 18.65 67.4293 18.37 67.4293 17.866V16.662H69.2913V18.65H70.7473V20.26H69.2913V24.39H70.6353V26ZM72.5507 26V20.26H71.5147V18.65H72.5507V17.782C72.5507 16.368 73.3207 15.64 74.7487 15.64H76.0927V17.25H74.6227V18.65H76.0927V20.26H74.6227V26H72.5507ZM80.1726 26.168C78.0166 26.168 76.7286 24.684 76.7286 22.318C76.7286 19.952 78.0166 18.482 80.1726 18.482C82.3286 18.482 83.6166 19.952 83.6166 22.318C83.6166 24.684 82.3286 26.168 80.1726 26.168ZM80.1726 24.53C80.9846 24.53 81.4606 23.998 81.4606 23.074V21.576C81.4606 20.652 80.9846 20.12 80.1726 20.12C79.3606 20.12 78.8846 20.652 78.8846 21.576V23.074C78.8846 23.998 79.3606 24.53 80.1726 24.53ZM87.165 26H85.093V18.65H87.165V20.246H87.235C87.403 19.434 87.963 18.65 89.111 18.65H89.475V20.582H88.957C87.753 20.582 87.165 20.848 87.165 21.702V26ZM92.8251 26H90.7531V18.65H92.8251V19.896H92.9091C93.1751 19.112 93.7911 18.482 94.8831 18.482C95.8911 18.482 96.6191 19 96.9411 19.966H96.9831C97.2491 19.14 98.1031 18.482 99.2231 18.482C100.637 18.482 101.421 19.546 101.421 21.394V26H99.3491V21.562C99.3491 20.61 99.0271 20.162 98.3411 20.162C97.7251 20.162 97.1231 20.512 97.1231 21.24V26H95.0511V21.562C95.0511 20.61 94.7151 20.162 94.0431 20.162C93.4411 20.162 92.8251 20.512 92.8251 21.24V26ZM108.363 20.092H109.273C110.309 20.092 110.771 19.644 110.771 19.042V18.944C110.771 18.244 110.281 17.768 109.455 17.768C108.671 17.768 107.957 18.188 107.467 18.93L106.151 17.698C106.893 16.732 107.845 16.06 109.525 16.06C111.625 16.06 112.983 17.082 112.983 18.65C112.983 19.896 112.129 20.666 111.121 20.848V20.932C112.283 21.142 113.151 21.94 113.151 23.284C113.151 25.034 111.653 26.168 109.441 26.168C107.453 26.168 106.459 25.286 105.829 24.292L107.383 23.088C107.803 23.886 108.391 24.46 109.441 24.46C110.393 24.46 110.953 23.942 110.953 23.13V23.046C110.953 22.248 110.309 21.842 109.245 21.842H108.363V20.092Z" fill="white"/>
<path d="M16.6829 47H15.5429C14.6429 47 14.1629 46.496 14.1629 45.644V41.828H13.1909V40.76H13.7189C14.1509 40.76 14.2949 40.58 14.2949 40.148V39.056H15.4709V40.76H16.7789V41.828H15.4709V45.932H16.6829V47ZM20.5988 47.144C18.8588 47.144 17.7308 45.872 17.7308 43.88C17.7308 41.888 18.8588 40.616 20.5988 40.616C22.3388 40.616 23.4668 41.888 23.4668 43.88C23.4668 45.872 22.3388 47.144 20.5988 47.144ZM20.5988 46.064C21.4868 46.064 22.0868 45.512 22.0868 44.408V43.352C22.0868 42.248 21.4868 41.696 20.5988 41.696C19.7108 41.696 19.1108 42.248 19.1108 43.352V44.408C19.1108 45.512 19.7108 46.064 20.5988 46.064ZM25.9223 47L24.2183 40.76H25.4902L26.1263 43.376L26.6903 45.74H26.7263L27.3743 43.376L28.1303 40.76H29.3063L30.0742 43.376L30.7343 45.74H30.7703L31.3223 43.376L31.9703 40.76H33.1823L31.5023 47H30.0263L29.2103 44.156L28.7063 42.404H28.6823L28.1903 44.156L27.3623 47H25.9223ZM39.6033 47H38.8713C38.1873 47 37.8273 46.568 37.7433 45.956H37.6833C37.4433 46.736 36.7713 47.144 35.8593 47.144C34.5753 47.144 33.8433 46.412 33.8433 45.284C33.8433 44.048 34.7673 43.412 36.5073 43.412H37.6353V42.884C37.6353 42.128 37.2273 41.684 36.3513 41.684C35.6193 41.684 35.1753 42.044 34.8633 42.536L34.0833 41.828C34.4913 41.132 35.2233 40.616 36.4353 40.616C38.0433 40.616 38.9433 41.408 38.9433 42.8V45.932H39.6033V47ZM36.2313 46.148C37.0353 46.148 37.6353 45.764 37.6353 45.152V44.252H36.5313C35.6193 44.252 35.1753 44.552 35.1753 45.092V45.308C35.1753 45.86 35.5833 46.148 36.2313 46.148ZM42.1932 47H40.8852V40.76H42.1932V41.96H42.2532C42.4332 41.324 42.9732 40.76 43.9692 40.76H44.3172V42.02H43.8012C42.7692 42.02 42.1932 42.368 42.1932 43.016V47ZM49.3444 47V45.968H49.2844C49.0204 46.7 48.3604 47.144 47.5324 47.144C45.9604 47.144 45.0484 45.932 45.0484 43.88C45.0484 41.828 45.9604 40.616 47.5324 40.616C48.3604 40.616 49.0204 41.048 49.2844 41.792H49.3444V38.12H50.6524V47H49.3444ZM47.9284 46.016C48.7204 46.016 49.3444 45.584 49.3444 44.948V42.812C49.3444 42.176 48.7204 41.744 47.9284 41.744C47.0284 41.744 46.4284 42.38 46.4284 43.34V44.42C46.4284 45.38 47.0284 46.016 47.9284 46.016ZM54.5019 47.144C53.3259 47.144 52.5579 46.7 51.9699 45.968L52.8099 45.2C53.2659 45.752 53.8299 46.088 54.5739 46.088C55.3299 46.088 55.7139 45.776 55.7139 45.248C55.7139 44.852 55.4739 44.552 54.8259 44.468L54.2499 44.396C52.9779 44.24 52.1979 43.688 52.1979 42.536C52.1979 41.324 53.1459 40.616 54.5139 40.616C55.6419 40.616 56.2779 40.988 56.8419 41.612L56.0379 42.38C55.7139 41.996 55.1859 41.672 54.5139 41.672C53.7939 41.672 53.4579 41.984 53.4579 42.452C53.4579 42.932 53.7579 43.148 54.4179 43.256L54.9939 43.328C56.3619 43.532 56.9739 44.132 56.9739 45.14C56.9739 46.34 56.0019 47.144 54.5019 47.144ZM61.3836 47V38.624H62.9916L65.2356 42.884H65.3076L67.5516 38.624H69.0876V47H67.7916V40.592H67.7316L67.0716 41.948L65.2356 45.296L63.3996 41.948L62.7396 40.592H62.6796V47H61.3836ZM76.365 47H75.633C74.949 47 74.589 46.568 74.505 45.956H74.445C74.205 46.736 73.533 47.144 72.621 47.144C71.337 47.144 70.605 46.412 70.605 45.284C70.605 44.048 71.529 43.412 73.269 43.412H74.397V42.884C74.397 42.128 73.989 41.684 73.113 41.684C72.381 41.684 71.937 42.044 71.625 42.536L70.845 41.828C71.253 41.132 71.985 40.616 73.197 40.616C74.805 40.616 75.705 41.408 75.705 42.8V45.932H76.365V47ZM72.993 46.148C73.797 46.148 74.397 45.764 74.397 45.152V44.252H73.293C72.381 44.252 71.937 44.552 71.937 45.092V45.308C71.937 45.86 72.345 46.148 72.993 46.148ZM81.5709 47V45.968H81.5109C81.2469 46.7 80.5869 47.144 79.7589 47.144C78.1869 47.144 77.2749 45.932 77.2749 43.88C77.2749 41.828 78.1869 40.616 79.7589 40.616C80.5869 40.616 81.2469 41.048 81.5109 41.792H81.5709V38.12H82.8789V47H81.5709ZM80.1549 46.016C80.9469 46.016 81.5709 45.584 81.5709 44.948V42.812C81.5709 42.176 80.9469 41.744 80.1549 41.744C79.2549 41.744 78.6549 42.38 78.6549 43.34V44.42C78.6549 45.38 79.2549 46.016 80.1549 46.016ZM90.0525 47H89.3205C88.6365 47 88.2765 46.568 88.1925 45.956H88.1325C87.8925 46.736 87.2205 47.144 86.3085 47.144C85.0245 47.144 84.2925 46.412 84.2925 45.284C84.2925 44.048 85.2165 43.412 86.9565 43.412H88.0845V42.884C88.0845 42.128 87.6765 41.684 86.8005 41.684C86.0685 41.684 85.6245 42.044 85.3125 42.536L84.5325 41.828C84.9405 41.132 85.6725 40.616 86.8845 40.616C88.4925 40.616 89.3925 41.408 89.3925 42.8V45.932H90.0525V47ZM86.6805 46.148C87.4845 46.148 88.0845 45.764 88.0845 45.152V44.252H86.9805C86.0685 44.252 85.6245 44.552 85.6245 45.092V45.308C85.6245 45.86 86.0325 46.148 86.6805 46.148ZM94.121 47H92.585L90.461 40.76H91.757L92.705 43.604L93.341 45.788H93.413L94.049 43.604L95.021 40.76H96.269L94.121 47ZM102.568 47H101.836C101.152 47 100.792 46.568 100.708 45.956H100.648C100.408 46.736 99.7361 47.144 98.8241 47.144C97.5401 47.144 96.8081 46.412 96.8081 45.284C96.8081 44.048 97.7321 43.412 99.4721 43.412H100.6V42.884C100.6 42.128 100.192 41.684 99.3161 41.684C98.5841 41.684 98.1401 42.044 97.8281 42.536L97.0481 41.828C97.4561 41.132 98.1881 40.616 99.4001 40.616C101.008 40.616 101.908 41.408 101.908 42.8V45.932H102.568V47ZM99.1961 46.148C100 46.148 100.6 45.764 100.6 45.152V44.252H99.4961C98.5841 44.252 98.1401 44.552 98.1401 45.092V45.308C98.1401 45.86 98.5481 46.148 99.1961 46.148ZM105.158 47H103.85V40.76H105.158V41.96H105.218C105.398 41.324 105.938 40.76 106.934 40.76H107.282V42.02H106.766C105.734 42.02 105.158 42.368 105.158 43.016V47ZM113.654 47H112.922C112.238 47 111.878 46.568 111.794 45.956H111.734C111.494 46.736 110.822 47.144 109.91 47.144C108.626 47.144 107.894 46.412 107.894 45.284C107.894 44.048 108.818 43.412 110.558 43.412H111.686V42.884C111.686 42.128 111.278 41.684 110.402 41.684C109.67 41.684 109.226 42.044 108.914 42.536L108.134 41.828C108.542 41.132 109.274 40.616 110.486 40.616C112.094 40.616 112.994 41.408 112.994 42.8V45.932H113.654V47ZM110.282 46.148C111.086 46.148 111.686 45.764 111.686 45.152V44.252H110.582C109.67 44.252 109.226 44.552 109.226 45.092V45.308C109.226 45.86 109.634 46.148 110.282 46.148Z" fill="white"/>
</g>
<defs>
<filter id="filter0_d_1177_138265" x="0" y="8" width="126" height="54" filterUnits="userSpaceOnUse" color-interpolation-filters="sRGB">
<feFlood flood-opacity="0" result="BackgroundImageFix"/>
<feColorMatrix in="SourceAlpha" type="matrix" values="0 0 0 0 0 0 0 0 0 0 0 0 0 0 0 0 0 0 127 0" result="hardAlpha"/>
<feOffset dy="4"/>
<feGaussianBlur stdDeviation="2"/>
<feComposite in2="hardAlpha" operator="out"/>
<feColorMatrix type="matrix" values="0 0 0 0 0 0 0 0 0 0 0 0 0 0 0 0 0 0 0.25 0"/>
<feBlend mode="normal" in2="BackgroundImageFix" result="effect1_dropShadow_1177_138265"/>
<feBlend mode="normal" in="SourceGraphic" in2="effect1_dropShadow_1177_138265" result="shape"/>
</filter>
</defs>
</svg>
