<svg width="40" height="40" viewBox="0 0 40 40" fill="none" xmlns="http://www.w3.org/2000/svg">
<path d="M35 1.25C37.0711 1.25 38.75 2.92893 38.75 5V35C38.75 37.0711 37.0711 38.75 35 38.75H5C2.92893 38.75 1.25 37.0711 1.25 35V5C1.25 2.92893 2.92893 1.25 5 1.25H35Z" fill="#951A74"/>
<path d="M35 1.25C37.0711 1.25 38.75 2.92893 38.75 5V35C38.75 37.0711 37.0711 38.75 35 38.75H5C2.92893 38.75 1.25 37.0711 1.25 35V5C1.25 2.92893 2.92893 1.25 5 1.25H35Z" stroke="#16161D" stroke-width="1.5"/>
<path d="M23.3043 26.0794L23.349 20.6076L17.6612 20.5585L17.6165 26.0303L15.5826 26.0128L15.6852 13.4492L17.7191 13.4667L17.6759 18.7585L23.3637 18.8076L23.4069 13.5158L25.4408 13.5333L25.3382 26.0969L23.3043 26.0794Z" fill="#FEFBF4"/>
<path d="M11 27.2717V8.77051H29V27.2717" stroke="#FEFBF4" stroke-width="1.5"/>
</svg>
