<svg width="24" height="24" viewBox="0 0 24 24" fill="none" xmlns="http://www.w3.org/2000/svg">
<rect width="24" height="24" rx="6" fill="#1A81FF"/>
<path d="M13.0382 14.8088C13.0003 14.9001 12.9904 15.0007 13.0096 15.0977C13.0289 15.1947 13.0764 15.2838 13.1463 15.3538L15.1463 17.3538C15.1928 17.4003 15.2479 17.4371 15.3086 17.4623C15.3693 17.4875 15.4344 17.5004 15.5001 17.5004C15.5658 17.5004 15.6309 17.4875 15.6916 17.4623C15.7523 17.4371 15.8074 17.4003 15.8538 17.3538L17.8538 15.3538C17.9239 15.2838 17.9715 15.1947 17.9909 15.0977C18.0102 15.0006 18.0003 14.9 17.9624 14.8086C17.9245 14.7172 17.8604 14.6391 17.7781 14.5842C17.6958 14.5292 17.599 14.4999 17.5001 14.5H16.0001V7.00003C16.0001 6.86742 15.9474 6.74024 15.8536 6.64647C15.7599 6.55271 15.6327 6.50003 15.5001 6.50003C15.3675 6.50003 15.2403 6.55271 15.1465 6.64647C15.0528 6.74024 15.0001 6.86742 15.0001 7.00003V14.5H13.5001C13.4012 14.5 13.3045 14.5294 13.2223 14.5843C13.1401 14.6393 13.076 14.7174 13.0382 14.8088ZM7.14634 8.64628L9.14634 6.64628C9.19278 6.59979 9.24792 6.56291 9.30862 6.53775C9.36932 6.51259 9.43439 6.49963 9.50009 6.49963C9.5658 6.49963 9.63087 6.51259 9.69156 6.53775C9.75226 6.56291 9.80741 6.59979 9.85384 6.64628L11.8538 8.64628C11.9239 8.7162 11.9715 8.80533 11.9909 8.90237C12.0102 8.99942 12.0003 9.10001 11.9624 9.19142C11.9245 9.28283 11.8604 9.36095 11.7781 9.41589C11.6958 9.47082 11.599 9.50011 11.5001 9.50003H10.0001V17C10.0001 17.1326 9.94742 17.2598 9.85365 17.3536C9.75988 17.4473 9.6327 17.5 9.50009 17.5C9.36749 17.5 9.24031 17.4473 9.14654 17.3536C9.05277 17.2598 9.00009 17.1326 9.00009 17V9.50003H7.50009C7.40115 9.50011 7.3044 9.47082 7.2221 9.41589C7.13981 9.36095 7.07566 9.28283 7.03778 9.19142C6.99991 9.10001 6.99 8.99942 7.00933 8.90237C7.02866 8.80533 7.07634 8.7162 7.14634 8.64628Z" fill="white"/>
</svg>
