<svg width="146" height="62" viewBox="0 0 146 62" fill="none" xmlns="http://www.w3.org/2000/svg">
<circle cx="138" cy="8" r="7.5" fill="#951A74" stroke="white"/>
<g filter="url(#filter0_d_1116_497)">
<path d="M4 10C4 8.89543 4.89543 8 6 8H136C137.105 8 138 8.89543 138 10V52C138 53.1046 137.105 54 136 54H6C4.89543 54 4 53.1046 4 52V10Z" fill="#951A74" shape-rendering="crispEdges"/>
<path d="M6 8.5H136C136.828 8.5 137.5 9.17157 137.5 10V52C137.5 52.8284 136.828 53.5 136 53.5H6C5.17157 53.5 4.5 52.8284 4.5 52V10C4.5 9.17157 5.17157 8.5 6 8.5Z" stroke="#4E0A3C" shape-rendering="crispEdges"/>
<path d="M63.7529 26H61.6249V16.228H66.2449C68.0649 16.228 69.2129 17.502 69.2129 19.35C69.2129 21.198 68.0649 22.472 66.2449 22.472H63.7529V26ZM63.7529 18.076V20.624H65.9929C66.6229 20.624 67.0149 20.288 67.0149 19.658V19.042C67.0149 18.412 66.6229 18.076 65.9929 18.076H63.7529ZM73.6964 26H72.7584C71.3444 26 70.7004 25.286 70.7004 23.984V15.64H72.7724V24.39H73.6964V26ZM81.5187 26H80.3707C79.6287 26 79.0967 25.496 78.9707 24.712H78.8867C78.6627 25.664 77.8507 26.168 76.7307 26.168C75.2607 26.168 74.4487 25.3 74.4487 24.026C74.4487 22.472 75.6527 21.73 77.5987 21.73H78.7607V21.268C78.7607 20.554 78.4107 20.106 77.5427 20.106C76.7167 20.106 76.2827 20.526 75.9607 20.974L74.7287 19.882C75.3167 19.014 76.1567 18.482 77.6967 18.482C79.7687 18.482 80.8327 19.434 80.8327 21.17V24.39H81.5187V26ZM77.5007 24.726C78.1867 24.726 78.7607 24.446 78.7607 23.774V22.906H77.7527C76.9547 22.906 76.5347 23.2 76.5347 23.732V23.942C76.5347 24.474 76.8847 24.726 77.5007 24.726ZM86.6353 26H85.4033C83.9753 26 83.2193 25.258 83.2193 23.858V20.26H82.1833V18.65H82.7013C83.2613 18.65 83.4293 18.37 83.4293 17.866V16.662H85.2913V18.65H86.7473V20.26H85.2913V24.39H86.6353V26ZM88.5507 26V20.26H87.5147V18.65H88.5507V17.782C88.5507 16.368 89.3207 15.64 90.7487 15.64H92.0927V17.25H90.6227V18.65H92.0927V20.26H90.6227V26H88.5507ZM96.1726 26.168C94.0166 26.168 92.7286 24.684 92.7286 22.318C92.7286 19.952 94.0166 18.482 96.1726 18.482C98.3286 18.482 99.6166 19.952 99.6166 22.318C99.6166 24.684 98.3286 26.168 96.1726 26.168ZM96.1726 24.53C96.9846 24.53 97.4606 23.998 97.4606 23.074V21.576C97.4606 20.652 96.9846 20.12 96.1726 20.12C95.3606 20.12 94.8846 20.652 94.8846 21.576V23.074C94.8846 23.998 95.3606 24.53 96.1726 24.53ZM103.165 26H101.093V18.65H103.165V20.246H103.235C103.403 19.434 103.963 18.65 105.111 18.65H105.475V20.582H104.957C103.753 20.582 103.165 20.848 103.165 21.702V26ZM108.825 26H106.753V18.65H108.825V19.896H108.909C109.175 19.112 109.791 18.482 110.883 18.482C111.891 18.482 112.619 19 112.941 19.966H112.983C113.249 19.14 114.103 18.482 115.223 18.482C116.637 18.482 117.421 19.546 117.421 21.394V26H115.349V21.562C115.349 20.61 115.027 20.162 114.341 20.162C113.725 20.162 113.123 20.512 113.123 21.24V26H111.051V21.562C111.051 20.61 110.715 20.162 110.043 20.162C109.441 20.162 108.825 20.512 108.825 21.24V26ZM129.319 24.236V26H122.403V24.082L125.413 21.506C126.505 20.568 126.883 20.022 126.883 19.196V19C126.883 18.258 126.225 17.88 125.595 17.88C124.671 17.88 124.223 18.51 124.027 19.252L122.193 18.552C122.627 17.194 123.761 16.06 125.791 16.06C127.905 16.06 129.123 17.306 129.123 19C129.123 20.68 127.919 21.702 126.519 22.808L124.699 24.236H129.319Z" fill="white"/>
<path d="M16.5931 47H15.4531C14.5531 47 14.0731 46.496 14.0731 45.644V41.828H13.1011V40.76H13.6291C14.0611 40.76 14.2051 40.58 14.2051 40.148V39.056H15.3811V40.76H16.6891V41.828H15.3811V45.932H16.5931V47ZM20.509 47.144C18.769 47.144 17.641 45.872 17.641 43.88C17.641 41.888 18.769 40.616 20.509 40.616C22.249 40.616 23.377 41.888 23.377 43.88C23.377 45.872 22.249 47.144 20.509 47.144ZM20.509 46.064C21.397 46.064 21.997 45.512 21.997 44.408V43.352C21.997 42.248 21.397 41.696 20.509 41.696C19.621 41.696 19.021 42.248 19.021 43.352V44.408C19.021 45.512 19.621 46.064 20.509 46.064ZM25.8324 47L24.1284 40.76H25.4004L26.0364 43.376L26.6004 45.74H26.6364L27.2844 43.376L28.0404 40.76H29.2164L29.9844 43.376L30.6444 45.74H30.6804L31.2324 43.376L31.8804 40.76H33.0924L31.4124 47H29.9364L29.1204 44.156L28.6164 42.404H28.5924L28.1004 44.156L27.2724 47H25.8324ZM39.5134 47H38.7814C38.0974 47 37.7374 46.568 37.6534 45.956H37.5934C37.3534 46.736 36.6814 47.144 35.7694 47.144C34.4854 47.144 33.7534 46.412 33.7534 45.284C33.7534 44.048 34.6774 43.412 36.4174 43.412H37.5454V42.884C37.5454 42.128 37.1374 41.684 36.2614 41.684C35.5294 41.684 35.0854 42.044 34.7734 42.536L33.9934 41.828C34.4014 41.132 35.1334 40.616 36.3454 40.616C37.9534 40.616 38.8534 41.408 38.8534 42.8V45.932H39.5134V47ZM36.1414 46.148C36.9454 46.148 37.5454 45.764 37.5454 45.152V44.252H36.4414C35.5294 44.252 35.0854 44.552 35.0854 45.092V45.308C35.0854 45.86 35.4934 46.148 36.1414 46.148ZM42.1034 47H40.7954V40.76H42.1034V41.96H42.1634C42.3434 41.324 42.8834 40.76 43.8794 40.76H44.2274V42.02H43.7114C42.6794 42.02 42.1034 42.368 42.1034 43.016V47ZM49.2545 47V45.968H49.1945C48.9305 46.7 48.2705 47.144 47.4425 47.144C45.8705 47.144 44.9585 45.932 44.9585 43.88C44.9585 41.828 45.8705 40.616 47.4425 40.616C48.2705 40.616 48.9305 41.048 49.1945 41.792H49.2545V38.12H50.5625V47H49.2545ZM47.8385 46.016C48.6305 46.016 49.2545 45.584 49.2545 44.948V42.812C49.2545 42.176 48.6305 41.744 47.8385 41.744C46.9385 41.744 46.3385 42.38 46.3385 43.34V44.42C46.3385 45.38 46.9385 46.016 47.8385 46.016ZM54.4121 47.144C53.2361 47.144 52.4681 46.7 51.8801 45.968L52.7201 45.2C53.1761 45.752 53.7401 46.088 54.4841 46.088C55.2401 46.088 55.6241 45.776 55.6241 45.248C55.6241 44.852 55.3841 44.552 54.7361 44.468L54.1601 44.396C52.8881 44.24 52.1081 43.688 52.1081 42.536C52.1081 41.324 53.0561 40.616 54.4241 40.616C55.5521 40.616 56.1881 40.988 56.7521 41.612L55.9481 42.38C55.6241 41.996 55.0961 41.672 54.4241 41.672C53.7041 41.672 53.3681 41.984 53.3681 42.452C53.3681 42.932 53.6681 43.148 54.3281 43.256L54.9041 43.328C56.2721 43.532 56.8841 44.132 56.8841 45.14C56.8841 46.34 55.9121 47.144 54.4121 47.144ZM64.4377 47.144C62.2537 47.144 60.9217 45.62 60.9217 42.812C60.9217 40.004 62.2537 38.48 64.4377 38.48C65.8897 38.48 66.8617 39.128 67.4257 40.376L66.2857 41C65.9977 40.208 65.4097 39.692 64.4377 39.692C63.1537 39.692 62.3617 40.628 62.3617 42.176V43.448C62.3617 44.996 63.1537 45.932 64.4377 45.932C65.4337 45.932 66.0697 45.356 66.3697 44.54L67.4617 45.2C66.8977 46.412 65.8897 47.144 64.4377 47.144ZM68.8032 47V38.12H70.1112V41.792H70.1712C70.4352 41.12 70.9632 40.616 71.9232 40.616C73.1952 40.616 73.9512 41.504 73.9512 43.04V47H72.6432V43.196C72.6432 42.236 72.2712 41.744 71.4672 41.744C70.7832 41.744 70.1112 42.092 70.1112 42.812V47H68.8032ZM81.0681 47H80.3361C79.6521 47 79.2921 46.568 79.2081 45.956H79.1481C78.9081 46.736 78.2361 47.144 77.3241 47.144C76.0401 47.144 75.3081 46.412 75.3081 45.284C75.3081 44.048 76.2321 43.412 77.9721 43.412H79.1001V42.884C79.1001 42.128 78.6921 41.684 77.8161 41.684C77.0841 41.684 76.6401 42.044 76.3281 42.536L75.5481 41.828C75.9561 41.132 76.6881 40.616 77.9001 40.616C79.5081 40.616 80.4081 41.408 80.4081 42.8V45.932H81.0681V47ZM77.6961 46.148C78.5001 46.148 79.1001 45.764 79.1001 45.152V44.252H77.9961C77.0841 44.252 76.6401 44.552 76.6401 45.092V45.308C76.6401 45.86 77.0481 46.148 77.6961 46.148ZM84.5221 47H83.6821C82.7941 47 82.3501 46.508 82.3501 45.704V38.12H83.6581V45.932H84.5221V47ZM87.8736 47H87.0336C86.1456 47 85.7016 46.508 85.7016 45.704V38.12H87.0096V45.932H87.8736V47ZM94.4275 47H93.6955C93.0115 47 92.6515 46.568 92.5675 45.956H92.5075C92.2675 46.736 91.5955 47.144 90.6835 47.144C89.3995 47.144 88.6675 46.412 88.6675 45.284C88.6675 44.048 89.5915 43.412 91.3315 43.412H92.4595V42.884C92.4595 42.128 92.0515 41.684 91.1755 41.684C90.4435 41.684 89.9995 42.044 89.6875 42.536L88.9075 41.828C89.3155 41.132 90.0475 40.616 91.2595 40.616C92.8675 40.616 93.7675 41.408 93.7675 42.8V45.932H94.4275V47ZM91.0555 46.148C91.8595 46.148 92.4595 45.764 92.4595 45.152V44.252H91.3555C90.4435 44.252 89.9995 44.552 89.9995 45.092V45.308C89.9995 45.86 90.4075 46.148 91.0555 46.148ZM101.181 47.588C101.181 48.884 100.257 49.544 98.0134 49.544C95.9734 49.544 95.1814 48.992 95.1814 48.044C95.1814 47.36 95.5894 46.988 96.2494 46.844V46.712C95.7934 46.568 95.5414 46.22 95.5414 45.752C95.5414 45.104 96.0454 44.792 96.6454 44.648V44.6C95.9134 44.252 95.5054 43.592 95.5054 42.752C95.5054 41.48 96.4054 40.616 97.9894 40.616C98.4094 40.616 98.7934 40.676 99.1174 40.808V40.64C99.1174 40.088 99.3814 39.752 99.9334 39.752H100.893V40.808H99.6214V41.06C100.185 41.432 100.497 42.032 100.497 42.752C100.497 44.012 99.5854 44.864 98.0014 44.864C97.7014 44.864 97.4134 44.828 97.1854 44.768C96.8734 44.876 96.5854 45.08 96.5854 45.392C96.5854 45.728 96.9094 45.86 97.4614 45.86H98.9974C100.533 45.86 101.181 46.508 101.181 47.588ZM99.9574 47.732C99.9574 47.3 99.6694 47.024 98.8174 47.024H96.7054C96.4174 47.192 96.2734 47.444 96.2734 47.744C96.2734 48.248 96.6454 48.596 97.6174 48.596H98.4334C99.4534 48.596 99.9574 48.308 99.9574 47.732ZM98.0014 43.916C98.7694 43.916 99.2134 43.568 99.2134 42.86V42.62C99.2134 41.912 98.7694 41.564 98.0014 41.564C97.2334 41.564 96.7894 41.912 96.7894 42.62V42.86C96.7894 43.568 97.2334 43.916 98.0014 43.916ZM102.155 47V38.12H103.463V41.792H103.523C103.787 41.12 104.315 40.616 105.275 40.616C106.547 40.616 107.303 41.504 107.303 43.04V47H105.995V43.196C105.995 42.236 105.623 41.744 104.819 41.744C104.135 41.744 103.463 42.092 103.463 42.812V47H102.155ZM114.42 47H113.688C113.004 47 112.644 46.568 112.56 45.956H112.5C112.26 46.736 111.588 47.144 110.676 47.144C109.392 47.144 108.66 46.412 108.66 45.284C108.66 44.048 109.584 43.412 111.324 43.412H112.452V42.884C112.452 42.128 112.044 41.684 111.168 41.684C110.436 41.684 109.992 42.044 109.68 42.536L108.9 41.828C109.308 41.132 110.04 40.616 111.252 40.616C112.86 40.616 113.76 41.408 113.76 42.8V45.932H114.42V47ZM111.048 46.148C111.852 46.148 112.452 45.764 112.452 45.152V44.252H111.348C110.436 44.252 109.992 44.552 109.992 45.092V45.308C109.992 45.86 110.4 46.148 111.048 46.148ZM118.534 47H117.394C116.494 47 116.014 46.496 116.014 45.644V41.828H115.042V40.76H115.57C116.002 40.76 116.146 40.58 116.146 40.148V39.056H117.322V40.76H118.63V41.828H117.322V45.932H118.534V47ZM122.835 47H121.695C120.795 47 120.315 46.496 120.315 45.644V41.828H119.343V40.76H119.871C120.303 40.76 120.447 40.58 120.447 40.148V39.056H121.623V40.76H122.931V41.828H121.623V45.932H122.835V47ZM129.654 47H128.922C128.238 47 127.878 46.568 127.794 45.956H127.734C127.494 46.736 126.822 47.144 125.91 47.144C124.626 47.144 123.894 46.412 123.894 45.284C123.894 44.048 124.818 43.412 126.558 43.412H127.686V42.884C127.686 42.128 127.278 41.684 126.402 41.684C125.67 41.684 125.226 42.044 124.914 42.536L124.134 41.828C124.542 41.132 125.274 40.616 126.486 40.616C128.094 40.616 128.994 41.408 128.994 42.8V45.932H129.654V47ZM126.282 46.148C127.086 46.148 127.686 45.764 127.686 45.152V44.252H126.582C125.67 44.252 125.226 44.552 125.226 45.092V45.308C125.226 45.86 125.634 46.148 126.282 46.148Z" fill="white"/>
</g>
<defs>
<filter id="filter0_d_1116_497" x="0" y="8" width="142" height="54" filterUnits="userSpaceOnUse" color-interpolation-filters="sRGB">
<feFlood flood-opacity="0" result="BackgroundImageFix"/>
<feColorMatrix in="SourceAlpha" type="matrix" values="0 0 0 0 0 0 0 0 0 0 0 0 0 0 0 0 0 0 127 0" result="hardAlpha"/>
<feOffset dy="4"/>
<feGaussianBlur stdDeviation="2"/>
<feComposite in2="hardAlpha" operator="out"/>
<feColorMatrix type="matrix" values="0 0 0 0 0 0 0 0 0 0 0 0 0 0 0 0 0 0 0.25 0"/>
<feBlend mode="normal" in2="BackgroundImageFix" result="effect1_dropShadow_1116_497"/>
<feBlend mode="normal" in="SourceGraphic" in2="effect1_dropShadow_1116_497" result="shape"/>
</filter>
</defs>
</svg>
