<svg width="155" height="62" viewBox="0 0 155 62" fill="none" xmlns="http://www.w3.org/2000/svg">
<circle cx="147" cy="8" r="7.5" fill="#951A74" stroke="white"/>
<g filter="url(#filter0_d_1116_497)">
<path d="M4 10C4 8.89543 4.89543 8 6 8H145C146.105 8 147 8.89543 147 10V52C147 53.1046 146.105 54 145 54H6C4.89543 54 4 53.1046 4 52V10Z" fill="#951A74" shape-rendering="crispEdges"/>
<path d="M6 8.5H145C145.828 8.5 146.5 9.17157 146.5 10V52C146.5 52.8284 145.828 53.5 145 53.5H6C5.17157 53.5 4.5 52.8284 4.5 52V10C4.5 9.17157 5.17157 8.5 6 8.5Z" stroke="#4E0A3C" shape-rendering="crispEdges"/>
<path d="M72.7529 26H70.6249V16.228H75.2449C77.0649 16.228 78.2129 17.502 78.2129 19.35C78.2129 21.198 77.0649 22.472 75.2449 22.472H72.7529V26ZM72.7529 18.076V20.624H74.9929C75.6229 20.624 76.0149 20.288 76.0149 19.658V19.042C76.0149 18.412 75.6229 18.076 74.9929 18.076H72.7529ZM82.6964 26H81.7584C80.3444 26 79.7004 25.286 79.7004 23.984V15.64H81.7724V24.39H82.6964V26ZM90.5187 26H89.3707C88.6287 26 88.0967 25.496 87.9707 24.712H87.8867C87.6627 25.664 86.8507 26.168 85.7307 26.168C84.2607 26.168 83.4487 25.3 83.4487 24.026C83.4487 22.472 84.6527 21.73 86.5987 21.73H87.7607V21.268C87.7607 20.554 87.4107 20.106 86.5427 20.106C85.7167 20.106 85.2827 20.526 84.9607 20.974L83.7287 19.882C84.3167 19.014 85.1567 18.482 86.6967 18.482C88.7687 18.482 89.8327 19.434 89.8327 21.17V24.39H90.5187V26ZM86.5007 24.726C87.1867 24.726 87.7607 24.446 87.7607 23.774V22.906H86.7527C85.9547 22.906 85.5347 23.2 85.5347 23.732V23.942C85.5347 24.474 85.8847 24.726 86.5007 24.726ZM95.6353 26H94.4033C92.9753 26 92.2193 25.258 92.2193 23.858V20.26H91.1833V18.65H91.7013C92.2613 18.65 92.4293 18.37 92.4293 17.866V16.662H94.2913V18.65H95.7473V20.26H94.2913V24.39H95.6353V26ZM97.5507 26V20.26H96.5147V18.65H97.5507V17.782C97.5507 16.368 98.3207 15.64 99.7487 15.64H101.093V17.25H99.6227V18.65H101.093V20.26H99.6227V26H97.5507ZM105.173 26.168C103.017 26.168 101.729 24.684 101.729 22.318C101.729 19.952 103.017 18.482 105.173 18.482C107.329 18.482 108.617 19.952 108.617 22.318C108.617 24.684 107.329 26.168 105.173 26.168ZM105.173 24.53C105.985 24.53 106.461 23.998 106.461 23.074V21.576C106.461 20.652 105.985 20.12 105.173 20.12C104.361 20.12 103.885 20.652 103.885 21.576V23.074C103.885 23.998 104.361 24.53 105.173 24.53ZM112.165 26H110.093V18.65H112.165V20.246H112.235C112.403 19.434 112.963 18.65 114.111 18.65H114.475V20.582H113.957C112.753 20.582 112.165 20.848 112.165 21.702V26ZM117.825 26H115.753V18.65H117.825V19.896H117.909C118.175 19.112 118.791 18.482 119.883 18.482C120.891 18.482 121.619 19 121.941 19.966H121.983C122.249 19.14 123.103 18.482 124.223 18.482C125.637 18.482 126.421 19.546 126.421 21.394V26H124.349V21.562C124.349 20.61 124.027 20.162 123.341 20.162C122.725 20.162 122.123 20.512 122.123 21.24V26H120.051V21.562C120.051 20.61 119.715 20.162 119.043 20.162C118.441 20.162 117.825 20.512 117.825 21.24V26ZM138.319 24.236V26H131.403V24.082L134.413 21.506C135.505 20.568 135.883 20.022 135.883 19.196V19C135.883 18.258 135.225 17.88 134.595 17.88C133.671 17.88 133.223 18.51 133.027 19.252L131.193 18.552C131.627 17.194 132.761 16.06 134.791 16.06C136.905 16.06 138.123 17.306 138.123 19C138.123 20.68 136.919 21.702 135.519 22.808L133.699 24.236H138.319Z" fill="white"/>
<path d="M16.0071 47H14.8671C13.9671 47 13.4871 46.496 13.4871 45.644V41.828H12.5151V40.76H13.0431C13.4751 40.76 13.6191 40.58 13.6191 40.148V39.056H14.7951V40.76H16.1031V41.828H14.7951V45.932H16.0071V47ZM19.9231 47.144C18.1831 47.144 17.0551 45.872 17.0551 43.88C17.0551 41.888 18.1831 40.616 19.9231 40.616C21.6631 40.616 22.7911 41.888 22.7911 43.88C22.7911 45.872 21.6631 47.144 19.9231 47.144ZM19.9231 46.064C20.8111 46.064 21.4111 45.512 21.4111 44.408V43.352C21.4111 42.248 20.8111 41.696 19.9231 41.696C19.0351 41.696 18.4351 42.248 18.4351 43.352V44.408C18.4351 45.512 19.0351 46.064 19.9231 46.064ZM25.2465 47L23.5425 40.76H24.8145L25.4505 43.376L26.0145 45.74H26.0505L26.6985 43.376L27.4545 40.76H28.6305L29.3985 43.376L30.0585 45.74H30.0945L30.6465 43.376L31.2945 40.76H32.5065L30.8265 47H29.3505L28.5345 44.156L28.0305 42.404H28.0065L27.5145 44.156L26.6865 47H25.2465ZM38.9275 47H38.1955C37.5115 47 37.1515 46.568 37.0675 45.956H37.0075C36.7675 46.736 36.0955 47.144 35.1835 47.144C33.8995 47.144 33.1675 46.412 33.1675 45.284C33.1675 44.048 34.0915 43.412 35.8315 43.412H36.9595V42.884C36.9595 42.128 36.5515 41.684 35.6755 41.684C34.9435 41.684 34.4995 42.044 34.1875 42.536L33.4075 41.828C33.8155 41.132 34.5475 40.616 35.7595 40.616C37.3675 40.616 38.2675 41.408 38.2675 42.8V45.932H38.9275V47ZM35.5555 46.148C36.3595 46.148 36.9595 45.764 36.9595 45.152V44.252H35.8555C34.9435 44.252 34.4995 44.552 34.4995 45.092V45.308C34.4995 45.86 34.9075 46.148 35.5555 46.148ZM41.5174 47H40.2094V40.76H41.5174V41.96H41.5774C41.7574 41.324 42.2974 40.76 43.2934 40.76H43.6414V42.02H43.1254C42.0934 42.02 41.5174 42.368 41.5174 43.016V47ZM48.6686 47V45.968H48.6086C48.3446 46.7 47.6846 47.144 46.8566 47.144C45.2846 47.144 44.3726 45.932 44.3726 43.88C44.3726 41.828 45.2846 40.616 46.8566 40.616C47.6846 40.616 48.3446 41.048 48.6086 41.792H48.6686V38.12H49.9766V47H48.6686ZM47.2526 46.016C48.0446 46.016 48.6686 45.584 48.6686 44.948V42.812C48.6686 42.176 48.0446 41.744 47.2526 41.744C46.3526 41.744 45.7526 42.38 45.7526 43.34V44.42C45.7526 45.38 46.3526 46.016 47.2526 46.016ZM53.8262 47.144C52.6502 47.144 51.8822 46.7 51.2942 45.968L52.1342 45.2C52.5902 45.752 53.1542 46.088 53.8982 46.088C54.6542 46.088 55.0382 45.776 55.0382 45.248C55.0382 44.852 54.7982 44.552 54.1502 44.468L53.5742 44.396C52.3022 44.24 51.5222 43.688 51.5222 42.536C51.5222 41.324 52.4702 40.616 53.8382 40.616C54.9662 40.616 55.6022 40.988 56.1662 41.612L55.3622 42.38C55.0382 41.996 54.5102 41.672 53.8382 41.672C53.1182 41.672 52.7822 41.984 52.7822 42.452C52.7822 42.932 53.0822 43.148 53.7422 43.256L54.3182 43.328C55.6862 43.532 56.2982 44.132 56.2982 45.14C56.2982 46.34 55.3262 47.144 53.8262 47.144ZM63.8518 47.144C61.6678 47.144 60.3358 45.62 60.3358 42.812C60.3358 40.004 61.6678 38.48 63.8518 38.48C65.3038 38.48 66.2758 39.128 66.8398 40.376L65.6998 41C65.4118 40.208 64.8238 39.692 63.8518 39.692C62.5678 39.692 61.7758 40.628 61.7758 42.176V43.448C61.7758 44.996 62.5678 45.932 63.8518 45.932C64.8478 45.932 65.4838 45.356 65.7838 44.54L66.8758 45.2C66.3118 46.412 65.3038 47.144 63.8518 47.144ZM68.2173 47V38.12H69.5253V41.792H69.5853C69.8493 41.12 70.3773 40.616 71.3373 40.616C72.6093 40.616 73.3653 41.504 73.3653 43.04V47H72.0573V43.196C72.0573 42.236 71.6853 41.744 70.8813 41.744C70.1973 41.744 69.5253 42.092 69.5253 42.812V47H68.2173ZM80.4822 47H79.7502C79.0662 47 78.7062 46.568 78.6222 45.956H78.5622C78.3222 46.736 77.6502 47.144 76.7382 47.144C75.4542 47.144 74.7222 46.412 74.7222 45.284C74.7222 44.048 75.6462 43.412 77.3862 43.412H78.5142V42.884C78.5142 42.128 78.1062 41.684 77.2302 41.684C76.4982 41.684 76.0542 42.044 75.7422 42.536L74.9622 41.828C75.3702 41.132 76.1022 40.616 77.3142 40.616C78.9222 40.616 79.8222 41.408 79.8222 42.8V45.932H80.4822V47ZM77.1102 46.148C77.9142 46.148 78.5142 45.764 78.5142 45.152V44.252H77.4102C76.4982 44.252 76.0542 44.552 76.0542 45.092V45.308C76.0542 45.86 76.4622 46.148 77.1102 46.148ZM83.0721 47H81.7641V40.76H83.0721V41.792H83.1321C83.3961 41.12 83.9241 40.616 84.8841 40.616C86.1561 40.616 86.9121 41.504 86.9121 43.04V47H85.6041V43.208C85.6041 42.236 85.2321 41.744 84.4281 41.744C83.7441 41.744 83.0721 42.092 83.0721 42.824V47ZM90.0331 47H88.7251V40.76H90.0331V41.792H90.0931C90.3571 41.12 90.8851 40.616 91.8451 40.616C93.1171 40.616 93.8731 41.504 93.8731 43.04V47H92.5651V43.208C92.5651 42.236 92.1931 41.744 91.3891 41.744C90.7051 41.744 90.0331 42.092 90.0331 42.824V47ZM100.99 47H100.258C99.574 47 99.214 46.568 99.13 45.956H99.07C98.83 46.736 98.158 47.144 97.246 47.144C95.962 47.144 95.23 46.412 95.23 45.284C95.23 44.048 96.154 43.412 97.894 43.412H99.022V42.884C99.022 42.128 98.614 41.684 97.738 41.684C97.006 41.684 96.562 42.044 96.25 42.536L95.47 41.828C95.878 41.132 96.61 40.616 97.822 40.616C99.43 40.616 100.33 41.408 100.33 42.8V45.932H100.99V47ZM97.618 46.148C98.422 46.148 99.022 45.764 99.022 45.152V44.252H97.918C97.006 44.252 96.562 44.552 96.562 45.092V45.308C96.562 45.86 96.97 46.148 97.618 46.148ZM104.252 47.144C103.076 47.144 102.308 46.7 101.72 45.968L102.56 45.2C103.016 45.752 103.58 46.088 104.324 46.088C105.08 46.088 105.464 45.776 105.464 45.248C105.464 44.852 105.224 44.552 104.576 44.468L104 44.396C102.728 44.24 101.948 43.688 101.948 42.536C101.948 41.324 102.896 40.616 104.264 40.616C105.392 40.616 106.028 40.988 106.592 41.612L105.788 42.38C105.464 41.996 104.936 41.672 104.264 41.672C103.544 41.672 103.208 41.984 103.208 42.452C103.208 42.932 103.508 43.148 104.168 43.256L104.744 43.328C106.112 43.532 106.724 44.132 106.724 45.14C106.724 46.34 105.752 47.144 104.252 47.144ZM113.506 47H112.774C112.09 47 111.73 46.568 111.646 45.956H111.586C111.346 46.736 110.674 47.144 109.762 47.144C108.478 47.144 107.746 46.412 107.746 45.284C107.746 44.048 108.67 43.412 110.41 43.412H111.538V42.884C111.538 42.128 111.13 41.684 110.254 41.684C109.522 41.684 109.078 42.044 108.766 42.536L107.986 41.828C108.394 41.132 109.126 40.616 110.338 40.616C111.946 40.616 112.846 41.408 112.846 42.8V45.932H113.506V47ZM110.134 46.148C110.938 46.148 111.538 45.764 111.538 45.152V44.252H110.434C109.522 44.252 109.078 44.552 109.078 45.092V45.308C109.078 45.86 109.486 46.148 110.134 46.148ZM116.096 47H114.788V40.76H116.096V41.792H116.156C116.42 41.12 116.948 40.616 117.908 40.616C119.18 40.616 119.936 41.504 119.936 43.04V47H118.628V43.208C118.628 42.236 118.256 41.744 117.452 41.744C116.768 41.744 116.096 42.092 116.096 42.824V47ZM125.673 47V45.968H125.613C125.349 46.7 124.689 47.144 123.861 47.144C122.289 47.144 121.377 45.932 121.377 43.88C121.377 41.828 122.289 40.616 123.861 40.616C124.689 40.616 125.349 41.048 125.613 41.792H125.673V38.12H126.98V47H125.673ZM124.257 46.016C125.049 46.016 125.673 45.584 125.673 44.948V42.812C125.673 42.176 125.049 41.744 124.257 41.744C123.357 41.744 122.757 42.38 122.757 43.34V44.42C122.757 45.38 123.357 46.016 124.257 46.016ZM130.158 47H128.85V40.76H130.158V41.96H130.218C130.398 41.324 130.938 40.76 131.934 40.76H132.282V42.02H131.766C130.734 42.02 130.158 42.368 130.158 43.016V47ZM138.654 47H137.922C137.238 47 136.878 46.568 136.794 45.956H136.734C136.494 46.736 135.822 47.144 134.91 47.144C133.626 47.144 132.894 46.412 132.894 45.284C132.894 44.048 133.818 43.412 135.558 43.412H136.686V42.884C136.686 42.128 136.278 41.684 135.402 41.684C134.67 41.684 134.226 42.044 133.914 42.536L133.134 41.828C133.542 41.132 134.274 40.616 135.486 40.616C137.094 40.616 137.994 41.408 137.994 42.8V45.932H138.654V47ZM135.282 46.148C136.086 46.148 136.686 45.764 136.686 45.152V44.252H135.582C134.67 44.252 134.226 44.552 134.226 45.092V45.308C134.226 45.86 134.634 46.148 135.282 46.148Z" fill="white"/>
</g>
<defs>
<filter id="filter0_d_1116_497" x="0" y="8" width="151" height="54" filterUnits="userSpaceOnUse" color-interpolation-filters="sRGB">
<feFlood flood-opacity="0" result="BackgroundImageFix"/>
<feColorMatrix in="SourceAlpha" type="matrix" values="0 0 0 0 0 0 0 0 0 0 0 0 0 0 0 0 0 0 127 0" result="hardAlpha"/>
<feOffset dy="4"/>
<feGaussianBlur stdDeviation="2"/>
<feComposite in2="hardAlpha" operator="out"/>
<feColorMatrix type="matrix" values="0 0 0 0 0 0 0 0 0 0 0 0 0 0 0 0 0 0 0.25 0"/>
<feBlend mode="normal" in2="BackgroundImageFix" result="effect1_dropShadow_1116_497"/>
<feBlend mode="normal" in="SourceGraphic" in2="effect1_dropShadow_1116_497" result="shape"/>
</filter>
</defs>
</svg>
