<svg width="195" height="54" viewBox="0 0 195 54" fill="none" xmlns="http://www.w3.org/2000/svg">
<circle cx="8" cy="45" r="7.5" fill="#951A74" stroke="white"/>
<g filter="url(#filter0_d_1102_1258)">
<rect x="8" width="183" height="46" rx="2" fill="white" shape-rendering="crispEdges"/>
<rect x="8.5" y="0.5" width="182" height="45" rx="1.5" stroke="#951A74" shape-rendering="crispEdges"/>
<path d="M19.206 18H17.078V8.228H21.698C23.518 8.228 24.666 9.502 24.666 11.35C24.666 13.198 23.518 14.472 21.698 14.472H19.206V18ZM19.206 10.076V12.624H21.446C22.076 12.624 22.468 12.288 22.468 11.658V11.042C22.468 10.412 22.076 10.076 21.446 10.076H19.206ZM29.1495 18H28.2115C26.7975 18 26.1535 17.286 26.1535 15.984V7.64H28.2255V16.39H29.1495V18ZM36.9718 18H35.8238C35.0818 18 34.5498 17.496 34.4238 16.712H34.3398C34.1158 17.664 33.3038 18.168 32.1838 18.168C30.7138 18.168 29.9018 17.3 29.9018 16.026C29.9018 14.472 31.1058 13.73 33.0518 13.73H34.2138V13.268C34.2138 12.554 33.8638 12.106 32.9958 12.106C32.1698 12.106 31.7358 12.526 31.4138 12.974L30.1818 11.882C30.7698 11.014 31.6098 10.482 33.1498 10.482C35.2218 10.482 36.2858 11.434 36.2858 13.17V16.39H36.9718V18ZM32.9538 16.726C33.6398 16.726 34.2138 16.446 34.2138 15.774V14.906H33.2058C32.4078 14.906 31.9878 15.2 31.9878 15.732V15.942C31.9878 16.474 32.3378 16.726 32.9538 16.726ZM42.0885 18H40.8565C39.4285 18 38.6725 17.258 38.6725 15.858V12.26H37.6365V10.65H38.1545C38.7145 10.65 38.8825 10.37 38.8825 9.866V8.662H40.7445V10.65H42.2005V12.26H40.7445V16.39H42.0885V18ZM44.0038 18V12.26H42.9678V10.65H44.0038V9.782C44.0038 8.368 44.7738 7.64 46.2018 7.64H47.5458V9.25H46.0758V10.65H47.5458V12.26H46.0758V18H44.0038ZM51.6257 18.168C49.4697 18.168 48.1817 16.684 48.1817 14.318C48.1817 11.952 49.4697 10.482 51.6257 10.482C53.7817 10.482 55.0697 11.952 55.0697 14.318C55.0697 16.684 53.7817 18.168 51.6257 18.168ZM51.6257 16.53C52.4377 16.53 52.9137 15.998 52.9137 15.074V13.576C52.9137 12.652 52.4377 12.12 51.6257 12.12C50.8137 12.12 50.3377 12.652 50.3377 13.576V15.074C50.3377 15.998 50.8137 16.53 51.6257 16.53ZM58.6181 18H56.5461V10.65H58.6181V12.246H58.6881C58.8561 11.434 59.4161 10.65 60.5641 10.65H60.9281V12.582H60.4101C59.2061 12.582 58.6181 12.848 58.6181 13.702V18ZM64.2782 18H62.2062V10.65H64.2782V11.896H64.3622C64.6282 11.112 65.2442 10.482 66.3362 10.482C67.3442 10.482 68.0722 11 68.3942 11.966H68.4362C68.7022 11.14 69.5562 10.482 70.6762 10.482C72.0902 10.482 72.8742 11.546 72.8742 13.394V18H70.8022V13.562C70.8022 12.61 70.4802 12.162 69.7942 12.162C69.1782 12.162 68.5762 12.512 68.5762 13.24V18H66.5042V13.562C66.5042 12.61 66.1682 12.162 65.4962 12.162C64.8942 12.162 64.2782 12.512 64.2782 13.24V18ZM85.1786 18H78.3746V16.306H81.0066V9.754H80.8806L78.8926 12.358L77.5486 11.308L79.8866 8.228H83.1066V16.306H85.1786V18Z" fill="black"/>
<path d="M18.664 39C18.208 39 17.864 38.884 17.632 38.652C17.4 38.412 17.284 38.076 17.284 37.644V33.828H16.312V32.76H16.84C17.056 32.76 17.204 32.712 17.284 32.616C17.372 32.52 17.416 32.364 17.416 32.148V31.056H18.592V32.76H19.9V33.828H18.592V37.932H19.804V39H18.664ZM23.7199 39.144C23.2879 39.144 22.8919 39.068 22.5319 38.916C22.1799 38.764 21.8799 38.548 21.6319 38.268C21.3839 37.98 21.1919 37.636 21.0559 37.236C20.9199 36.828 20.8519 36.376 20.8519 35.88C20.8519 35.384 20.9199 34.936 21.0559 34.536C21.1919 34.128 21.3839 33.784 21.6319 33.504C21.8799 33.216 22.1799 32.996 22.5319 32.844C22.8919 32.692 23.2879 32.616 23.7199 32.616C24.1519 32.616 24.5439 32.692 24.8959 32.844C25.2559 32.996 25.5599 33.216 25.8079 33.504C26.0559 33.784 26.2479 34.128 26.3839 34.536C26.5199 34.936 26.5879 35.384 26.5879 35.88C26.5879 36.376 26.5199 36.828 26.3839 37.236C26.2479 37.636 26.0559 37.98 25.8079 38.268C25.5599 38.548 25.2559 38.764 24.8959 38.916C24.5439 39.068 24.1519 39.144 23.7199 39.144ZM23.7199 38.064C24.1679 38.064 24.5279 37.928 24.7999 37.656C25.0719 37.376 25.2079 36.96 25.2079 36.408V35.352C25.2079 34.8 25.0719 34.388 24.7999 34.116C24.5279 33.836 24.1679 33.696 23.7199 33.696C23.2719 33.696 22.9119 33.836 22.6399 34.116C22.3679 34.388 22.2319 34.8 22.2319 35.352V36.408C22.2319 36.96 22.3679 37.376 22.6399 37.656C22.9119 37.928 23.2719 38.064 23.7199 38.064ZM27.3393 32.76H28.6113L29.2473 35.376L29.8113 37.74H29.8473L30.4953 35.376L31.2513 32.76H32.4273L33.1953 35.376L33.8553 37.74H33.8913L34.4433 35.376L35.0913 32.76H36.3033L34.6233 39H33.1473L32.3313 36.156L31.8273 34.404H31.8033L31.3113 36.156L30.4833 39H29.0433L27.3393 32.76ZM41.9924 39C41.6484 39 41.3844 38.904 41.2004 38.712C41.0164 38.512 40.9044 38.26 40.8644 37.956H40.8044C40.6844 38.348 40.4644 38.644 40.1444 38.844C39.8244 39.044 39.4364 39.144 38.9804 39.144C38.3324 39.144 37.8324 38.976 37.4804 38.64C37.1364 38.304 36.9644 37.852 36.9644 37.284C36.9644 36.66 37.1884 36.192 37.6364 35.88C38.0924 35.568 38.7564 35.412 39.6284 35.412H40.7564V34.884C40.7564 34.5 40.6524 34.204 40.4444 33.996C40.2364 33.788 39.9124 33.684 39.4724 33.684C39.1044 33.684 38.8044 33.764 38.5724 33.924C38.3404 34.084 38.1444 34.288 37.9844 34.536L37.2044 33.828C37.4124 33.476 37.7044 33.188 38.0804 32.964C38.4564 32.732 38.9484 32.616 39.5564 32.616C40.3644 32.616 40.9844 32.804 41.4164 33.18C41.8484 33.556 42.0644 34.096 42.0644 34.8V37.932H42.7244V39H41.9924ZM39.3524 38.148C39.7604 38.148 40.0964 38.06 40.3604 37.884C40.6244 37.7 40.7564 37.456 40.7564 37.152V36.252H39.6524C38.7484 36.252 38.2964 36.532 38.2964 37.092V37.308C38.2964 37.588 38.3884 37.8 38.5724 37.944C38.7644 38.08 39.0244 38.148 39.3524 38.148ZM44.0063 39V32.76H45.3143V33.96H45.3743C45.4623 33.64 45.6463 33.36 45.9263 33.12C46.2063 32.88 46.5943 32.76 47.0903 32.76H47.4383V34.02H46.9223C46.4023 34.02 46.0023 34.104 45.7223 34.272C45.4503 34.44 45.3143 34.688 45.3143 35.016V39H44.0063ZM52.4655 37.968H52.4055C52.2695 38.336 52.0455 38.624 51.7335 38.832C51.4295 39.04 51.0695 39.144 50.6535 39.144C49.8615 39.144 49.2495 38.86 48.8175 38.292C48.3855 37.716 48.1695 36.912 48.1695 35.88C48.1695 34.848 48.3855 34.048 48.8175 33.48C49.2495 32.904 49.8615 32.616 50.6535 32.616C51.0695 32.616 51.4295 32.72 51.7335 32.928C52.0455 33.128 52.2695 33.416 52.4055 33.792H52.4655V30.12H53.7735V39H52.4655V37.968ZM51.0495 38.016C51.4495 38.016 51.7855 37.92 52.0575 37.728C52.3295 37.528 52.4655 37.268 52.4655 36.948V34.812C52.4655 34.492 52.3295 34.236 52.0575 34.044C51.7855 33.844 51.4495 33.744 51.0495 33.744C50.5935 33.744 50.2295 33.892 49.9575 34.188C49.6855 34.476 49.5495 34.86 49.5495 35.34V36.42C49.5495 36.9 49.6855 37.288 49.9575 37.584C50.2295 37.872 50.5935 38.016 51.0495 38.016ZM57.623 39.144C57.031 39.144 56.535 39.04 56.135 38.832C55.735 38.624 55.387 38.336 55.091 37.968L55.931 37.2C56.163 37.48 56.419 37.7 56.699 37.86C56.987 38.012 57.319 38.088 57.695 38.088C58.079 38.088 58.363 38.016 58.547 37.872C58.739 37.72 58.835 37.512 58.835 37.248C58.835 37.048 58.767 36.88 58.631 36.744C58.503 36.6 58.275 36.508 57.947 36.468L57.371 36.396C56.731 36.316 56.227 36.132 55.859 35.844C55.499 35.548 55.319 35.112 55.319 34.536C55.319 34.232 55.375 33.964 55.487 33.732C55.599 33.492 55.755 33.292 55.955 33.132C56.163 32.964 56.407 32.836 56.687 32.748C56.975 32.66 57.291 32.616 57.635 32.616C58.195 32.616 58.651 32.704 59.003 32.88C59.363 33.056 59.683 33.3 59.963 33.612L59.159 34.38C58.999 34.188 58.787 34.024 58.523 33.888C58.267 33.744 57.971 33.672 57.635 33.672C57.275 33.672 57.007 33.744 56.831 33.888C56.663 34.032 56.579 34.22 56.579 34.452C56.579 34.692 56.655 34.872 56.807 34.992C56.959 35.112 57.203 35.2 57.539 35.256L58.115 35.328C58.803 35.432 59.303 35.636 59.615 35.94C59.935 36.236 60.095 36.636 60.095 37.14C60.095 37.444 60.035 37.72 59.915 37.968C59.803 38.208 59.639 38.416 59.423 38.592C59.207 38.768 58.947 38.904 58.643 39C58.339 39.096 57.999 39.144 57.623 39.144ZM65.7407 39L63.7607 30.624H65.1407L65.9927 34.656L66.5807 37.44H66.6167L67.2887 34.656L68.2847 30.624H69.7967L70.7807 34.656L71.4407 37.428H71.4767L72.0887 34.656L72.9647 30.624H74.2967L72.2327 39H70.7087L69.6407 34.668L69.0167 32.124H68.9927L68.3567 34.668L67.2647 39H65.7407ZM75.518 30.12H76.826V33.792H76.886C77.022 33.456 77.226 33.176 77.498 32.952C77.778 32.728 78.158 32.616 78.638 32.616C79.278 32.616 79.774 32.828 80.126 33.252C80.486 33.668 80.666 34.264 80.666 35.04V39H79.358V35.196C79.358 34.228 78.966 33.744 78.182 33.744C78.014 33.744 77.846 33.768 77.678 33.816C77.518 33.856 77.374 33.92 77.246 34.008C77.118 34.096 77.014 34.208 76.934 34.344C76.862 34.48 76.826 34.636 76.826 34.812V39H75.518V30.12ZM83.139 31.644C82.867 31.644 82.667 31.58 82.539 31.452C82.419 31.324 82.359 31.16 82.359 30.96V30.756C82.359 30.556 82.419 30.392 82.539 30.264C82.667 30.136 82.867 30.072 83.139 30.072C83.411 30.072 83.607 30.136 83.727 30.264C83.847 30.392 83.907 30.556 83.907 30.756V30.96C83.907 31.16 83.847 31.324 83.727 31.452C83.607 31.58 83.411 31.644 83.139 31.644ZM82.479 32.76H83.787V39H82.479V32.76ZM87.3828 39C86.9268 39 86.5828 38.884 86.3508 38.652C86.1188 38.412 86.0028 38.076 86.0028 37.644V33.828H85.0308V32.76H85.5588C85.7748 32.76 85.9228 32.712 86.0028 32.616C86.0908 32.52 86.1348 32.364 86.1348 32.148V31.056H87.3108V32.76H88.6188V33.828H87.3108V37.932H88.5228V39H87.3828ZM92.4387 39.144C91.9907 39.144 91.5907 39.068 91.2387 38.916C90.8867 38.764 90.5867 38.548 90.3387 38.268C90.0907 37.98 89.8987 37.636 89.7627 37.236C89.6347 36.828 89.5707 36.376 89.5707 35.88C89.5707 35.384 89.6347 34.936 89.7627 34.536C89.8987 34.128 90.0907 33.784 90.3387 33.504C90.5867 33.216 90.8867 32.996 91.2387 32.844C91.5907 32.692 91.9907 32.616 92.4387 32.616C92.8947 32.616 93.2947 32.696 93.6387 32.856C93.9907 33.016 94.2827 33.24 94.5147 33.528C94.7467 33.808 94.9187 34.136 95.0307 34.512C95.1507 34.888 95.2107 35.292 95.2107 35.724V36.216H90.9267V36.42C90.9267 36.9 91.0667 37.296 91.3467 37.608C91.6347 37.912 92.0427 38.064 92.5707 38.064C92.9547 38.064 93.2787 37.98 93.5427 37.812C93.8067 37.644 94.0307 37.416 94.2147 37.128L94.9827 37.884C94.7507 38.268 94.4147 38.576 93.9747 38.808C93.5347 39.032 93.0227 39.144 92.4387 39.144ZM92.4387 33.636C92.2147 33.636 92.0067 33.676 91.8147 33.756C91.6307 33.836 91.4707 33.948 91.3347 34.092C91.2067 34.236 91.1067 34.408 91.0347 34.608C90.9627 34.808 90.9267 35.028 90.9267 35.268V35.352H93.8307V35.232C93.8307 34.752 93.7067 34.368 93.4587 34.08C93.2107 33.784 92.8707 33.636 92.4387 33.636ZM96.9827 33.828H96.0347V32.76H96.9827V31.728C96.9827 31.224 97.1147 30.832 97.3787 30.552C97.6427 30.264 98.0387 30.12 98.5667 30.12H99.5987V31.188H98.2907V32.76H101.999V39H100.691V33.828H98.2907V39H96.9827V33.828ZM101.351 31.644C101.079 31.644 100.879 31.58 100.751 31.452C100.631 31.324 100.571 31.16 100.571 30.96V30.756C100.571 30.556 100.631 30.392 100.751 30.264C100.879 30.136 101.079 30.072 101.351 30.072C101.623 30.072 101.819 30.136 101.939 30.264C102.059 30.392 102.119 30.556 102.119 30.756V30.96C102.119 31.16 102.059 31.324 101.939 31.452C101.819 31.58 101.623 31.644 101.351 31.644ZM106.314 39.144C105.866 39.144 105.466 39.068 105.114 38.916C104.762 38.764 104.462 38.548 104.214 38.268C103.966 37.98 103.774 37.636 103.638 37.236C103.51 36.828 103.446 36.376 103.446 35.88C103.446 35.384 103.51 34.936 103.638 34.536C103.774 34.128 103.966 33.784 104.214 33.504C104.462 33.216 104.762 32.996 105.114 32.844C105.466 32.692 105.866 32.616 106.314 32.616C106.77 32.616 107.17 32.696 107.514 32.856C107.866 33.016 108.158 33.24 108.39 33.528C108.622 33.808 108.794 34.136 108.906 34.512C109.026 34.888 109.086 35.292 109.086 35.724V36.216H104.802V36.42C104.802 36.9 104.942 37.296 105.222 37.608C105.51 37.912 105.918 38.064 106.446 38.064C106.83 38.064 107.154 37.98 107.418 37.812C107.682 37.644 107.906 37.416 108.09 37.128L108.858 37.884C108.626 38.268 108.29 38.576 107.85 38.808C107.41 39.032 106.898 39.144 106.314 39.144ZM106.314 33.636C106.09 33.636 105.882 33.676 105.69 33.756C105.506 33.836 105.346 33.948 105.21 34.092C105.082 34.236 104.982 34.408 104.91 34.608C104.838 34.808 104.802 35.028 104.802 35.268V35.352H107.706V35.232C107.706 34.752 107.582 34.368 107.334 34.08C107.086 33.784 106.746 33.636 106.314 33.636ZM111.866 39C111.418 39 111.082 38.888 110.858 38.664C110.642 38.432 110.534 38.112 110.534 37.704V30.12H111.842V37.932H112.706V39H111.866ZM117.88 37.968H117.82C117.684 38.336 117.46 38.624 117.148 38.832C116.844 39.04 116.484 39.144 116.068 39.144C115.276 39.144 114.664 38.86 114.232 38.292C113.8 37.716 113.584 36.912 113.584 35.88C113.584 34.848 113.8 34.048 114.232 33.48C114.664 32.904 115.276 32.616 116.068 32.616C116.484 32.616 116.844 32.72 117.148 32.928C117.46 33.128 117.684 33.416 117.82 33.792H117.88V30.12H119.188V39H117.88V37.968ZM116.464 38.016C116.864 38.016 117.2 37.92 117.472 37.728C117.744 37.528 117.88 37.268 117.88 36.948V34.812C117.88 34.492 117.744 34.236 117.472 34.044C117.2 33.844 116.864 33.744 116.464 33.744C116.008 33.744 115.644 33.892 115.372 34.188C115.1 34.476 114.964 34.86 114.964 35.34V36.42C114.964 36.9 115.1 37.288 115.372 37.584C115.644 37.872 116.008 38.016 116.464 38.016ZM123.713 35.268C123.713 34.684 123.765 34.124 123.869 33.588C123.981 33.052 124.133 32.552 124.325 32.088C124.517 31.624 124.741 31.204 124.997 30.828C125.261 30.452 125.545 30.136 125.849 29.88H127.085C126.757 30.184 126.461 30.524 126.197 30.9C125.933 31.276 125.709 31.676 125.525 32.1C125.341 32.524 125.197 32.964 125.093 33.42C124.997 33.876 124.949 34.332 124.949 34.788V35.748C124.949 36.204 124.997 36.66 125.093 37.116C125.197 37.572 125.341 38.012 125.525 38.436C125.709 38.86 125.933 39.26 126.197 39.636C126.461 40.02 126.757 40.36 127.085 40.656H125.849C125.545 40.4 125.261 40.084 124.997 39.708C124.741 39.332 124.517 38.912 124.325 38.448C124.133 37.984 123.981 37.484 123.869 36.948C123.765 36.412 123.713 35.852 123.713 35.268ZM130.528 35.088L129.376 36.408V39H128.02V30.624H129.376V34.872H129.424L130.624 33.348L132.88 30.624H134.464L131.476 34.152L134.704 39H133.072L130.528 35.088ZM140.266 39C139.922 39 139.658 38.904 139.474 38.712C139.29 38.512 139.178 38.26 139.138 37.956H139.078C138.958 38.348 138.738 38.644 138.418 38.844C138.098 39.044 137.71 39.144 137.254 39.144C136.606 39.144 136.106 38.976 135.754 38.64C135.41 38.304 135.238 37.852 135.238 37.284C135.238 36.66 135.462 36.192 135.91 35.88C136.366 35.568 137.03 35.412 137.902 35.412H139.03V34.884C139.03 34.5 138.926 34.204 138.718 33.996C138.51 33.788 138.186 33.684 137.746 33.684C137.378 33.684 137.078 33.764 136.846 33.924C136.614 34.084 136.418 34.288 136.258 34.536L135.478 33.828C135.686 33.476 135.978 33.188 136.354 32.964C136.73 32.732 137.222 32.616 137.83 32.616C138.638 32.616 139.258 32.804 139.69 33.18C140.122 33.556 140.338 34.096 140.338 34.8V37.932H140.998V39H140.266ZM137.626 38.148C138.034 38.148 138.37 38.06 138.634 37.884C138.898 37.7 139.03 37.456 139.03 37.152V36.252H137.926C137.022 36.252 136.57 36.532 136.57 37.092V37.308C136.57 37.588 136.662 37.8 136.846 37.944C137.038 38.08 137.298 38.148 137.626 38.148ZM146.204 37.968H146.144C146.008 38.336 145.784 38.624 145.472 38.832C145.168 39.04 144.808 39.144 144.392 39.144C143.6 39.144 142.988 38.86 142.556 38.292C142.124 37.716 141.908 36.912 141.908 35.88C141.908 34.848 142.124 34.048 142.556 33.48C142.988 32.904 143.6 32.616 144.392 32.616C144.808 32.616 145.168 32.72 145.472 32.928C145.784 33.128 146.008 33.416 146.144 33.792H146.204V30.12H147.512V39H146.204V37.968ZM144.788 38.016C145.188 38.016 145.524 37.92 145.796 37.728C146.068 37.528 146.204 37.268 146.204 36.948V34.812C146.204 34.492 146.068 34.236 145.796 34.044C145.524 33.844 145.188 33.744 144.788 33.744C144.332 33.744 143.968 33.892 143.696 34.188C143.424 34.476 143.288 34.86 143.288 35.34V36.42C143.288 36.9 143.424 37.288 143.696 37.584C143.968 37.872 144.332 38.016 144.788 38.016ZM153.161 37.968H153.113C153.057 38.12 152.981 38.268 152.885 38.412C152.797 38.556 152.681 38.684 152.537 38.796C152.401 38.9 152.233 38.984 152.033 39.048C151.841 39.112 151.617 39.144 151.361 39.144C150.713 39.144 150.209 38.936 149.849 38.52C149.497 38.104 149.321 37.508 149.321 36.732V32.76H150.629V36.564C150.629 37.532 151.029 38.016 151.829 38.016C151.997 38.016 152.161 37.996 152.321 37.956C152.481 37.908 152.621 37.84 152.741 37.752C152.869 37.664 152.969 37.552 153.041 37.416C153.121 37.28 153.161 37.12 153.161 36.936V32.76H154.469V39H153.161V37.968ZM161.814 39.588C161.814 40.236 161.566 40.724 161.07 41.052C160.574 41.38 159.766 41.544 158.646 41.544C158.134 41.544 157.698 41.508 157.338 41.436C156.986 41.372 156.694 41.276 156.462 41.148C156.238 41.02 156.074 40.864 155.97 40.68C155.866 40.496 155.814 40.284 155.814 40.044C155.814 39.7 155.906 39.432 156.09 39.24C156.282 39.048 156.546 38.916 156.882 38.844V38.712C156.41 38.56 156.174 38.24 156.174 37.752C156.174 37.432 156.282 37.188 156.498 37.02C156.714 36.844 156.974 36.72 157.278 36.648V36.6C156.91 36.424 156.626 36.18 156.426 35.868C156.234 35.548 156.138 35.176 156.138 34.752C156.138 34.112 156.35 33.596 156.774 33.204C157.206 32.812 157.822 32.616 158.622 32.616C159.062 32.616 159.438 32.68 159.75 32.808V32.64C159.75 32.36 159.814 32.144 159.942 31.992C160.078 31.832 160.286 31.752 160.566 31.752H161.526V32.808H160.254V33.06C160.534 33.244 160.75 33.484 160.902 33.78C161.054 34.068 161.13 34.392 161.13 34.752C161.13 35.384 160.914 35.896 160.482 36.288C160.05 36.672 159.434 36.864 158.634 36.864C158.33 36.864 158.058 36.832 157.818 36.768C157.658 36.824 157.518 36.904 157.398 37.008C157.278 37.104 157.218 37.232 157.218 37.392C157.218 37.56 157.294 37.68 157.446 37.752C157.598 37.824 157.814 37.86 158.094 37.86H159.63C160.398 37.86 160.954 38.016 161.298 38.328C161.642 38.632 161.814 39.052 161.814 39.588ZM160.59 39.732C160.59 39.516 160.506 39.344 160.338 39.216C160.178 39.088 159.882 39.024 159.45 39.024H157.338C157.05 39.192 156.906 39.432 156.906 39.744C156.906 40 157.006 40.204 157.206 40.356C157.414 40.516 157.762 40.596 158.25 40.596H159.066C160.082 40.596 160.59 40.308 160.59 39.732ZM158.634 35.916C159.018 35.916 159.314 35.832 159.522 35.664C159.738 35.488 159.846 35.22 159.846 34.86V34.62C159.846 34.26 159.738 33.996 159.522 33.828C159.314 33.652 159.018 33.564 158.634 33.564C158.25 33.564 157.95 33.652 157.734 33.828C157.526 33.996 157.422 34.26 157.422 34.62V34.86C157.422 35.22 157.526 35.488 157.734 35.664C157.95 35.832 158.25 35.916 158.634 35.916ZM165.165 39.144C164.733 39.144 164.337 39.068 163.977 38.916C163.625 38.764 163.325 38.548 163.077 38.268C162.829 37.98 162.637 37.636 162.501 37.236C162.365 36.828 162.297 36.376 162.297 35.88C162.297 35.384 162.365 34.936 162.501 34.536C162.637 34.128 162.829 33.784 163.077 33.504C163.325 33.216 163.625 32.996 163.977 32.844C164.337 32.692 164.733 32.616 165.165 32.616C165.597 32.616 165.989 32.692 166.341 32.844C166.701 32.996 167.005 33.216 167.253 33.504C167.501 33.784 167.693 34.128 167.829 34.536C167.965 34.936 168.033 35.384 168.033 35.88C168.033 36.376 167.965 36.828 167.829 37.236C167.693 37.636 167.501 37.98 167.253 38.268C167.005 38.548 166.701 38.764 166.341 38.916C165.989 39.068 165.597 39.144 165.165 39.144ZM165.165 38.064C165.613 38.064 165.973 37.928 166.245 37.656C166.517 37.376 166.653 36.96 166.653 36.408V35.352C166.653 34.8 166.517 34.388 166.245 34.116C165.973 33.836 165.613 33.696 165.165 33.696C164.717 33.696 164.357 33.836 164.085 34.116C163.813 34.388 163.677 34.8 163.677 35.352V36.408C163.677 36.96 163.813 37.376 164.085 37.656C164.357 37.928 164.717 38.064 165.165 38.064ZM173.415 37.968H173.355C173.219 38.336 172.995 38.624 172.683 38.832C172.379 39.04 172.019 39.144 171.603 39.144C170.811 39.144 170.199 38.86 169.767 38.292C169.335 37.716 169.119 36.912 169.119 35.88C169.119 34.848 169.335 34.048 169.767 33.48C170.199 32.904 170.811 32.616 171.603 32.616C172.019 32.616 172.379 32.72 172.683 32.928C172.995 33.128 173.219 33.416 173.355 33.792H173.415V30.12H174.723V39H173.415V37.968ZM171.999 38.016C172.399 38.016 172.735 37.92 173.007 37.728C173.279 37.528 173.415 37.268 173.415 36.948V34.812C173.415 34.492 173.279 34.236 173.007 34.044C172.735 33.844 172.399 33.744 171.999 33.744C171.543 33.744 171.179 33.892 170.907 34.188C170.635 34.476 170.499 34.86 170.499 35.34V36.42C170.499 36.9 170.635 37.288 170.907 37.584C171.179 37.872 171.543 38.016 171.999 38.016ZM177.252 31.644C176.98 31.644 176.78 31.58 176.652 31.452C176.532 31.324 176.472 31.16 176.472 30.96V30.756C176.472 30.556 176.532 30.392 176.652 30.264C176.78 30.136 176.98 30.072 177.252 30.072C177.524 30.072 177.72 30.136 177.84 30.264C177.96 30.392 178.02 30.556 178.02 30.756V30.96C178.02 31.16 177.96 31.324 177.84 31.452C177.72 31.58 177.524 31.644 177.252 31.644ZM176.592 32.76H177.9V39H176.592V32.76ZM182.108 35.268C182.108 35.852 182.052 36.412 181.94 36.948C181.836 37.484 181.688 37.984 181.496 38.448C181.304 38.912 181.076 39.332 180.812 39.708C180.556 40.084 180.276 40.4 179.972 40.656H178.736C179.064 40.36 179.36 40.02 179.624 39.636C179.888 39.26 180.112 38.86 180.296 38.436C180.48 38.012 180.62 37.572 180.716 37.116C180.82 36.66 180.872 36.204 180.872 35.748V34.788C180.872 34.332 180.82 33.876 180.716 33.42C180.62 32.964 180.48 32.524 180.296 32.1C180.112 31.676 179.888 31.276 179.624 30.9C179.36 30.524 179.064 30.184 178.736 29.88H179.972C180.276 30.136 180.556 30.452 180.812 30.828C181.076 31.204 181.304 31.624 181.496 32.088C181.688 32.552 181.836 33.052 181.94 33.588C182.052 34.124 182.108 34.684 182.108 35.268Z" fill="black"/>
</g>
<defs>
<filter id="filter0_d_1102_1258" x="4" y="0" width="191" height="54" filterUnits="userSpaceOnUse" color-interpolation-filters="sRGB">
<feFlood flood-opacity="0" result="BackgroundImageFix"/>
<feColorMatrix in="SourceAlpha" type="matrix" values="0 0 0 0 0 0 0 0 0 0 0 0 0 0 0 0 0 0 127 0" result="hardAlpha"/>
<feOffset dy="4"/>
<feGaussianBlur stdDeviation="2"/>
<feComposite in2="hardAlpha" operator="out"/>
<feColorMatrix type="matrix" values="0 0 0 0 0 0 0 0 0 0 0 0 0 0 0 0 0 0 0.25 0"/>
<feBlend mode="normal" in2="BackgroundImageFix" result="effect1_dropShadow_1102_1258"/>
<feBlend mode="normal" in="SourceGraphic" in2="effect1_dropShadow_1102_1258" result="shape"/>
</filter>
</defs>
</svg>
