<svg width="14" height="14" viewBox="0 0 14 14" fill="none" xmlns="http://www.w3.org/2000/svg">
<path d="M7 0.500977C5.71442 0.500977 4.45772 0.882195 3.3888 1.59642C2.31988 2.31065 1.48676 3.32581 0.994786 4.51353C0.502816 5.70125 0.374095 7.00819 0.624899 8.26906C0.875703 9.52994 1.49477 10.6881 2.40381 11.5972C3.31285 12.5062 4.47104 13.1253 5.73192 13.3761C6.99279 13.6269 8.29973 13.4982 9.48744 13.0062C10.6752 12.5142 11.6903 11.6811 12.4046 10.6122C13.1188 9.54326 13.5 8.28656 13.5 7.00098C13.4982 5.27763 12.8128 3.62538 11.5942 2.40679C10.3756 1.1882 8.72335 0.502796 7 0.500977ZM7 12.501C5.91221 12.501 4.84884 12.1784 3.94437 11.5741C3.0399 10.9697 2.33495 10.1107 1.91867 9.10574C1.50238 8.10074 1.39347 6.99488 1.60568 5.92798C1.8179 4.86108 2.34173 3.88108 3.11092 3.11189C3.8801 2.3427 4.86011 1.81888 5.92701 1.60666C6.9939 1.39444 8.09977 1.50336 9.10476 1.91964C10.1098 2.33592 10.9687 3.04087 11.5731 3.94534C12.1774 4.84981 12.5 5.91318 12.5 7.00098C12.4983 8.45916 11.9184 9.85715 10.8873 10.8882C9.85617 11.9193 8.45819 12.4993 7 12.501Z" fill="black"/>
</svg>
