<svg width="12" height="16" viewBox="0 0 12 16" fill="none" xmlns="http://www.w3.org/2000/svg">
<path d="M11.4869 7.38654C11.468 7.3064 11.4295 7.23218 11.375 7.17047C11.3205 7.10875 11.2516 7.06146 11.1744 7.03279L7.57377 5.68216L8.49002 1.09904C8.51077 0.992552 8.49632 0.882206 8.44885 0.784652C8.40138 0.687098 8.32347 0.60763 8.22688 0.558239C8.13028 0.508849 8.02025 0.492215 7.91337 0.510849C7.80649 0.529483 7.70858 0.582373 7.6344 0.661538L0.634396 8.16154C0.577542 8.22145 0.536414 8.2945 0.514685 8.37418C0.492956 8.45386 0.491304 8.53768 0.509875 8.61816C0.528446 8.69863 0.566662 8.77325 0.62111 8.83536C0.675557 8.89746 0.744541 8.9451 0.821896 8.97404L4.42377 10.3247L3.51002 14.9028C3.48927 15.0093 3.50372 15.1196 3.55119 15.2172C3.59866 15.3147 3.67657 15.3942 3.77316 15.4436C3.86976 15.493 3.97979 15.5096 4.08667 15.491C4.19355 15.4723 4.29146 15.4195 4.36565 15.3403L11.3656 7.84029C11.4215 7.78037 11.4617 7.70765 11.4829 7.62854C11.504 7.54942 11.5054 7.46632 11.4869 7.38654ZM4.83565 13.3759L5.49002 10.1022C5.51344 9.98606 5.49488 9.86541 5.43765 9.76171C5.38042 9.65801 5.28824 9.57799 5.17752 9.53591L1.87502 8.29529L7.16377 2.62904L6.51002 5.90279C6.4866 6.01889 6.50516 6.13954 6.56239 6.24324C6.61962 6.34694 6.7118 6.42696 6.82252 6.46904L10.1225 7.70654L4.83565 13.3759Z" fill="black"/>
</svg>
