<svg width="12" height="14" viewBox="0 0 12 14" fill="none" xmlns="http://www.w3.org/2000/svg">
<path d="M6 3.00098C5.50555 3.00098 5.0222 3.1476 4.61107 3.4223C4.19995 3.69701 3.87952 4.08745 3.6903 4.54427C3.50108 5.00108 3.45157 5.50375 3.54804 5.9887C3.6445 6.47365 3.8826 6.91911 4.23223 7.26874C4.58186 7.61837 5.02732 7.85648 5.51227 7.95294C5.99723 8.0494 6.49989 7.99989 6.95671 7.81068C7.41352 7.62146 7.80397 7.30102 8.07867 6.8899C8.35338 6.47878 8.5 5.99543 8.5 5.50098C8.5 4.83794 8.23661 4.20205 7.76777 3.73321C7.29893 3.26437 6.66304 3.00098 6 3.00098ZM6 7.00098C5.70333 7.00098 5.41332 6.913 5.16664 6.74818C4.91997 6.58336 4.72771 6.34909 4.61418 6.075C4.50065 5.80091 4.47094 5.49931 4.52882 5.20834C4.5867 4.91737 4.72956 4.65009 4.93934 4.44032C5.14912 4.23054 5.41639 4.08768 5.70736 4.0298C5.99834 3.97192 6.29994 4.00163 6.57403 4.11516C6.84811 4.22869 7.08238 4.42095 7.2472 4.66762C7.41203 4.91429 7.5 5.2043 7.5 5.50098C7.5 5.8988 7.34196 6.28033 7.06066 6.56164C6.77936 6.84294 6.39782 7.00098 6 7.00098ZM6 0.000976562C4.54182 0.00263077 3.14383 0.582625 2.11274 1.61372C1.08165 2.64481 0.501654 4.04279 0.5 5.50098C0.5 7.46348 1.40688 9.54348 3.125 11.5166C3.89701 12.4082 4.76591 13.2111 5.71562 13.9104C5.7997 13.9692 5.89985 14.0008 6.0025 14.0008C6.10515 14.0008 6.20531 13.9692 6.28938 13.9104C7.23734 13.2108 8.10455 12.4079 8.875 11.5166C10.5906 9.54348 11.5 7.46348 11.5 5.50098C11.4983 4.04279 10.9184 2.64481 9.88726 1.61372C8.85617 0.582625 7.45818 0.00263077 6 0.000976562ZM6 12.876C4.96688 12.0635 1.5 9.0791 1.5 5.50098C1.5 4.3075 1.97411 3.16291 2.81802 2.319C3.66193 1.47508 4.80653 1.00098 6 1.00098C7.19347 1.00098 8.33807 1.47508 9.18198 2.319C10.0259 3.16291 10.5 4.3075 10.5 5.50098C10.5 9.07785 7.03312 12.0635 6 12.876Z" fill="#EA4236"/>
</svg>
