<svg width="14" height="14" viewBox="0 0 14 14" fill="none" xmlns="http://www.w3.org/2000/svg">
<path d="M7 0.500977C5.71442 0.500977 4.45772 0.882195 3.3888 1.59642C2.31988 2.31065 1.48676 3.32581 0.994786 4.51353C0.502816 5.70125 0.374095 7.00819 0.624899 8.26906C0.875703 9.52994 1.49477 10.6881 2.40381 11.5972C3.31285 12.5062 4.47104 13.1253 5.73192 13.3761C6.99279 13.6269 8.29973 13.4982 9.48744 13.0062C10.6752 12.5142 11.6903 11.6811 12.4046 10.6122C13.1188 9.54326 13.5 8.28656 13.5 7.00098C13.4982 5.27763 12.8128 3.62538 11.5942 2.40679C10.3756 1.1882 8.72335 0.502796 7 0.500977ZM7 12.501C5.91221 12.501 4.84884 12.1784 3.94437 11.5741C3.0399 10.9697 2.33495 10.1107 1.91867 9.10574C1.50238 8.10074 1.39347 6.99488 1.60568 5.92798C1.8179 4.86108 2.34173 3.88108 3.11092 3.11189C3.8801 2.3427 4.86011 1.81888 5.92701 1.60666C6.9939 1.39444 8.09977 1.50336 9.10476 1.91964C10.1098 2.33592 10.9687 3.04087 11.5731 3.94534C12.1774 4.84981 12.5 5.91318 12.5 7.00098C12.4983 8.45916 11.9184 9.85715 10.8873 10.8882C9.85617 11.9193 8.45819 12.4993 7 12.501ZM9.35375 5.14723C9.40021 5.19368 9.43706 5.24883 9.4622 5.30953C9.48734 5.37022 9.50028 5.43528 9.50028 5.50098C9.50028 5.56667 9.48734 5.63173 9.4622 5.69242C9.43706 5.75312 9.40021 5.80827 9.35375 5.85473C9.3073 5.90118 9.25215 5.93803 9.19145 5.96317C9.13075 5.98831 9.0657 6.00125 9 6.00125C8.93431 6.00125 8.86925 5.98831 8.80855 5.96317C8.74786 5.93803 8.69271 5.90118 8.64625 5.85473L7 4.20785L5.35375 5.85473C5.25993 5.94855 5.13268 6.00125 5 6.00125C4.86732 6.00125 4.74007 5.94855 4.64625 5.85473C4.55243 5.76091 4.49972 5.63366 4.49972 5.50098C4.49972 5.36829 4.55243 5.24105 4.64625 5.14723L6.64625 3.14723C6.69269 3.10074 6.74783 3.06386 6.80853 3.0387C6.86923 3.01353 6.9343 3.00058 7 3.00058C7.06571 3.00058 7.13077 3.01353 7.19147 3.0387C7.25217 3.06386 7.30732 3.10074 7.35375 3.14723L9.35375 5.14723ZM9.35375 8.14723C9.40024 8.19366 9.43712 8.24881 9.46228 8.30951C9.48744 8.37021 9.5004 8.43527 9.5004 8.50098C9.5004 8.56668 9.48744 8.63175 9.46228 8.69245C9.43712 8.75315 9.40024 8.80829 9.35375 8.85473L7.35375 10.8547C7.30732 10.9012 7.25217 10.9381 7.19147 10.9633C7.13077 10.9884 7.06571 11.0014 7 11.0014C6.9343 11.0014 6.86923 10.9884 6.80853 10.9633C6.74783 10.9381 6.69269 10.9012 6.64625 10.8547L4.64625 8.85473C4.55243 8.76091 4.49972 8.63366 4.49972 8.50098C4.49972 8.36829 4.55243 8.24105 4.64625 8.14723C4.74007 8.05341 4.86732 8.0007 5 8.0007C5.13268 8.0007 5.25993 8.05341 5.35375 8.14723L7 9.7941L8.64625 8.14723C8.69269 8.10074 8.74783 8.06386 8.80853 8.0387C8.86923 8.01353 8.93429 8.00058 9 8.00058C9.06571 8.00058 9.13077 8.01353 9.19147 8.0387C9.25217 8.06386 9.30732 8.10074 9.35375 8.14723Z" fill="black"/>
</svg>
