<svg width="12" height="14" viewBox="0 0 12 14" fill="none" xmlns="http://www.w3.org/2000/svg">
<path d="M7.50003 4.00098C7.8956 4.00098 8.28227 3.88368 8.61117 3.66392C8.94007 3.44415 9.19642 3.1318 9.34779 2.76634C9.49917 2.40089 9.53877 1.99876 9.4616 1.6108C9.38443 1.22283 9.19395 0.866469 8.91425 0.586764C8.63454 0.307059 8.27817 0.116577 7.89021 0.0394069C7.50225 -0.0377635 7.10012 0.00184312 6.73467 0.153218C6.36921 0.304594 6.05686 0.560939 5.83709 0.889837C5.61733 1.21874 5.50003 1.60541 5.50003 2.00098C5.50003 2.53141 5.71075 3.04012 6.08582 3.41519C6.46089 3.79026 6.9696 4.00098 7.50003 4.00098ZM7.50003 1.00098C7.69781 1.00098 7.89115 1.05963 8.0556 1.16951C8.22005 1.27939 8.34822 1.43557 8.42391 1.61829C8.4996 1.80102 8.5194 2.00209 8.48082 2.19607C8.44223 2.39005 8.34699 2.56823 8.20714 2.70808C8.06729 2.84794 7.8891 2.94318 7.69512 2.98176C7.50114 3.02035 7.30007 3.00054 7.11735 2.92486C6.93462 2.84917 6.77844 2.721 6.66856 2.55655C6.55868 2.3921 6.50003 2.19876 6.50003 2.00098C6.50003 1.73576 6.60539 1.48141 6.79293 1.29387C6.98046 1.10633 7.23482 1.00098 7.50003 1.00098ZM11.5 8.00098C11.5 8.13359 11.4474 8.26076 11.3536 8.35453C11.2598 8.4483 11.1326 8.50098 11 8.50098C8.79316 8.50098 7.69066 7.38785 6.80503 6.49348C6.63378 6.32035 6.47003 6.15598 6.30503 6.00348L5.46566 7.93348L7.79066 9.5941C7.85542 9.64036 7.9082 9.70142 7.94462 9.77218C7.98104 9.84295 8.00003 9.92139 8.00003 10.001V13.501C8.00003 13.6336 7.94735 13.7608 7.85359 13.8545C7.75982 13.9483 7.63264 14.001 7.50003 14.001C7.36742 14.001 7.24025 13.9483 7.14648 13.8545C7.05271 13.7608 7.00003 13.6336 7.00003 13.501V10.2585L5.05816 8.87098L2.95878 13.7004C2.91993 13.7897 2.85581 13.8658 2.77431 13.9192C2.69281 13.9726 2.59747 14.001 2.50003 14.001C2.43137 14.0011 2.36345 13.9869 2.30066 13.9591C2.17911 13.9063 2.08351 13.8073 2.03488 13.684C1.98624 13.5608 1.98855 13.4232 2.04128 13.3016L5.42128 5.52848C4.83941 5.42535 4.11378 5.60348 3.25253 6.06473C2.56566 6.44361 1.92458 6.90014 1.34191 7.42535C1.24465 7.51247 1.11717 7.55809 0.986725 7.55245C0.856277 7.54682 0.733208 7.49038 0.643825 7.3952C0.554442 7.30002 0.505836 7.17365 0.508397 7.04311C0.510959 6.91257 0.564484 6.7882 0.657532 6.6966C0.813782 6.54973 4.51316 3.11973 6.82753 5.1291C7.06691 5.3366 7.29503 5.5666 7.51503 5.78973C8.38691 6.66973 9.21003 7.50098 11 7.50098C11.1326 7.50098 11.2598 7.55366 11.3536 7.64742C11.4474 7.74119 11.5 7.86837 11.5 8.00098Z" fill="black"/>
</svg>
